<svg xmlns="http://www.w3.org/2000/svg" viewBox="0 0 500 500"><g id="freepik--character-1--inject-37"><g id="freepik--Character--inject-37"><g id="freepik--character--inject-37"><g id="freepik--Chair--inject-37"><path d="M192.17,376.51l-8.87-74.09-7.26-.37,12.48,74.45h0a1,1,0,0,0,.48.65,2.92,2.92,0,0,0,2.59.13.9.9,0,0,0,.57-.77Z" style="fill:#263238"></path><path d="M183.3,302.42l-7.26-.37,2.14,14.05a28.16,28.16,0,0,0,4.29-2,4.44,4.44,0,0,0,1.92-1.64Z" style="fill:#263238"></path><path d="M86.89,291.56H79.63L69.06,361.51h0a.86.86,0,0,0,.52.8,2.82,2.82,0,0,0,2.59,0,1,1,0,0,0,.52-.62h0Z" style="fill:#37474f"></path><path d="M79.63,291.56l-2.95,19.52a28.25,28.25,0,0,0,5.57,3.41l4.64-22.93Z" style="fill:#263238"></path><path d="M143.64,401.34,136.81,326l-7.25-.37L140,401.33h0a1,1,0,0,0,.49.65,2.83,2.83,0,0,0,2.58.13.87.87,0,0,0,.57-.77Z" style="fill:#37474f"></path><path d="M137.7,336.85,136.81,326l-7.25-.37,1.47,11.7A13.34,13.34,0,0,0,137.7,336.85Z" style="fill:#263238"></path><path d="M126.54,268.51h-7.27L108.7,338.46h0a.88.88,0,0,0,.53.8,2.88,2.88,0,0,0,2.59,0,1,1,0,0,0,.51-.62h0Z" style="fill:#263238"></path><g id="freepik--chair--inject-37"><path d="M66.12,206.84a41.34,41.34,0,0,0-2.9,12.75c-.83,9.78,2.34,45.92,4.33,60.07h0c2.87,23.65,6.4,23.69,11.53,27.65,8.81,6.81,34.17,20.16,42.54,23.46,15.17,6,27.58-3.24,36.83-7.81a214,214,0,0,0,24.5-14.51c2.31-1.68,3.51-3.38,3.48-5.17,0-.71,0-3.62,0-4.37,0-2.28-2-4.73-6.26-7.48-7.84-5.09-36.16-21.61-47.14-27.69a.12.12,0,0,0-.09-.09c-8.45-5.13-13.39-44.46-19.24-63-.12-.4-.25-.78-.38-1.15s-.2-.59-.3-.87c-.37-1-.75-1.93-1.15-2.77" style="fill:#B3DDFF"></path><path d="M186.43,298.91c0-2.28-2-4.73-6.26-7.48-7.84-5.09-36.16-21.61-47.14-27.69a.12.12,0,0,0-.09-.09c-8.45-5.13-13.39-44.46-19.24-63a34.43,34.43,0,0,0-1.22-3.41c0-.09-.07-.17-.11-.25l-.33-.76c-.06-.12-.11-.25-.17-.37h0a17.76,17.76,0,0,0-3.9-5.64,8.71,8.71,0,0,0-1.92-1.35l-3.44-1.93c-5.74-3.44-13.26.68-22.64,5.82-5.83,3.2-10.81,7-13.84,14.08h0a41.34,41.34,0,0,0-2.9,12.75c-.83,9.78,2.34,45.92,4.33,60.07h0c2.87,23.65,6.4,23.69,11.53,27.65,8.81,6.81,34.17,20.16,42.54,23.46,15.17,6,27.58-3.24,36.83-7.81a214,214,0,0,0,24.5-14.51c2.31-1.68,3.51-3.38,3.48-5.17C186.42,302.57,186.43,299.66,186.43,298.91Z" style="fill:#B3DDFF"></path><path d="M186.43,298.91c0-2.28-2-4.73-6.26-7.48-7.84-5.09-36.16-21.61-47.14-27.69a.12.12,0,0,0-.09-.09c-8.45-5.13-13.39-44.46-19.24-63a34.43,34.43,0,0,0-1.22-3.41c0-.09-.07-.17-.11-.25l-.33-.76c-.06-.12-.11-.25-.17-.37h0a17.76,17.76,0,0,0-3.9-5.64,8.71,8.71,0,0,0-1.92-1.35l-3.44-1.93c-5.74-3.44-13.26.68-22.64,5.82-5.83,3.2-10.81,7-13.84,14.08h0a41.34,41.34,0,0,0-2.9,12.75c-.83,9.78,2.34,45.92,4.33,60.07h0c2.87,23.65,6.4,23.69,11.53,27.65,8.81,6.81,34.17,20.16,42.54,23.46,15.17,6,27.58-3.24,36.83-7.81a214,214,0,0,0,24.5-14.51c2.31-1.68,3.51-3.38,3.48-5.17C186.42,302.57,186.43,299.66,186.43,298.91Z" style="fill:#fff;opacity:0.25"></path><path d="M158.44,318.57a215.32,215.32,0,0,0,24.5-14.52c5.26-3.82,4.78-7.73-2.76-12.62-10.48-6.79-53.18-31-53.18-31s-54,31.85-51.65,37.74,35.73,24.08,46.26,28.22C136.79,332.34,149.19,323.13,158.44,318.57Z" style="fill:#B3DDFF"></path><path d="M158.44,318.57a215.32,215.32,0,0,0,24.5-14.52c5.26-3.82,4.78-7.73-2.76-12.62-10.48-6.79-53.18-31-53.18-31s-54,31.85-51.65,37.74,35.73,24.08,46.26,28.22C136.79,332.34,149.19,323.13,158.44,318.57Z" style="fill:#fff;opacity:0.6000000000000001"></path><path d="M106,188.87c-5.68-3-13.06,1.08-22.2,6.08C78,198.16,73,202,70,209.07l-3.86-2.23c3-7.08,8-10.88,13.84-14.08,9.38-5.14,16.9-9.26,22.64-5.82Z" style="fill:#B3DDFF"></path><path d="M106,188.87c-5.68-3-13.06,1.08-22.2,6.08C78,198.16,73,202,70,209.07l-3.86-2.23c3-7.08,8-10.88,13.84-14.08,9.38-5.14,16.9-9.26,22.64-5.82Z" style="fill:#fff;opacity:0.5"></path><path d="M113.7,200.65c-.12-.4-2.08-7.2-5.74-10.43a9.23,9.23,0,0,0-6.21-2.37c-5,0-10.92,3.28-17.91,7.1-.58.32-1.15.65-1.72,1l-.65.38c-.26.16-.52.32-.77.49s-.38.24-.57.37a32.57,32.57,0,0,0-3.52,2.67c-.18.16-.35.31-.52.48a23.07,23.07,0,0,0-2,2.07c-.11.14-.23.27-.34.4l-.39.49c-.13.17-.25.34-.39.51l-.37.52a24.7,24.7,0,0,0-1.39,2.23c-.06.1-.12.2-.17.3l-.33.63-.45.94a40.41,40.41,0,0,0-3.16,13.37c-1.36,16.06,4,73.62,9.53,78.19,0,0-.85-5.19,10.26-12.18,7.55-4.75,12.85-8.74,20.91-12.7,19.63-9.64,25.14-11.45,25.14-11.45C124.49,258.52,119.55,219.19,113.7,200.65Z" style="fill:#B3DDFF"></path><path d="M113.7,200.65c-.12-.4-2.08-7.2-5.74-10.43a9.23,9.23,0,0,0-6.21-2.37c-5,0-10.92,3.28-17.91,7.1-.58.32-1.15.65-1.72,1l-.65.38c-.26.16-.52.32-.77.49s-.38.24-.57.37a32.57,32.57,0,0,0-3.52,2.67c-.18.16-.35.31-.52.48a23.07,23.07,0,0,0-2,2.07c-.11.14-.23.27-.34.4l-.39.49c-.13.17-.25.34-.39.51l-.37.52a24.7,24.7,0,0,0-1.39,2.23c-.06.1-.12.2-.17.3l-.33.63-.45.94a40.41,40.41,0,0,0-3.16,13.37c-1.36,16.06,4,73.62,9.53,78.19,0,0-.85-5.19,10.26-12.18,7.55-4.75,12.85-8.74,20.91-12.7,19.63-9.64,25.14-11.45,25.14-11.45C124.49,258.52,119.55,219.19,113.7,200.65Z" style="fill:#fff;opacity:0.4"></path></g></g><path id="freepik--shadow--inject-37" d="M186.42,303.28c0,1.78-1.17,3.49-3.48,5.17A212.57,212.57,0,0,1,158.44,323c-4.81,2.38-10.47,6-16.93,8.1C126,322,99.26,306.1,92.68,300.83c-3.52-2.81-5.64-7.52-6.9-12.31a64.57,64.57,0,0,1-1.86-16.28,22,22,0,0,1-9.58-6.35c-3.88-4.28-4.91-18.19-6.46-49.82h0a34.55,34.55,0,0,1,2.38-7.64l.45-.94c.11-.21.22-.42.34-.63a3,3,0,0,1,.16-.3,23.38,23.38,0,0,1,1.39-2.23l.37-.52c.14-.18.25-.35.39-.51l.39-.49c.11-.13.22-.27.34-.39a24.62,24.62,0,0,1,2-2.08c.17-.17.35-.32.52-.48a32.57,32.57,0,0,1,3.52-2.67,5,5,0,0,1,.57-.37c.25-.17.5-.33.77-.48a7,7,0,0,1,.65-.39c.56-.33,1.14-.67,1.72-1,7-3.81,12.94-7.09,17.91-7.09a9.4,9.4,0,0,1,5.83,2,3.08,3.08,0,0,1,.37.33,15.44,15.44,0,0,1,3.17,4.19c.12.23.25.46.36.69a1.09,1.09,0,0,1,.08.15c.11.2.2.4.3.61l.11.23.06.14c.06.12.12.26.17.38.21.45.39.89.54,1.29l.12.28c.12.32.23.62.32.89l.09.25a2.41,2.41,0,0,1,.08.25,1.18,1.18,0,0,1,.07.2c0,.07,0,.13.07.2s.06.17.08.24,0,.12,0,.16l.09.27c5.85,18.55,10.79,57.89,19.24,63a.12.12,0,0,1,.09.09c11,6.08,39.3,22.6,47.14,27.68,4.25,2.76,6.25,5.21,6.26,7.5C186.43,299.66,186.41,302.57,186.42,303.28Z" style="opacity:0.1"></path><g id="freepik--character--inject-37"><path d="M222.83,185.72c-2.21.78-11.46,5.34-16.06,5.13-2-.08-2.43-.47-2.27-1,.21-.66,1.58-1.51,2-2,.66-.88,4.34-4.42,3.49-6.69s-2.19-.43-5.45,1.88c-1.92,1.36-4.07,2.32-6.11,3.49-1.11.64-5.09,2-7.34,6.67s-2.88,7.73-4.58,10.25c-2.83,4.46-7.28,10.39-12.41,17.52,0,0-17.92-22.6-21.33-26.82s-10.18-10.91-16.82-12.49L145,214.3s9.74,13.62,20,25c8.25,9.2,13.64,10.06,18.86,2.27a26.26,26.26,0,0,0,1.46-2.34c5.15-9.16,7.28-15.65,12.53-27.07a26.84,26.84,0,0,1,2.65-4.83c3.15-2.84,9.09-3.34,12.07-4.52,4.4-1.75,6.7-3.68,8.74-6.57,1.92-2.71,1.31-5.39,2.45-7S225.05,184.94,222.83,185.72Z" style="fill:#ffa8a7"></path><path d="M132.94,180.66c9,0,12.78,4.11,18.32,10.73,3.44,4.11,22.84,28.37,22.84,28.37l4.59-5.35s-.25,7.21,2.77,11.16,8.3,5,8.3,5-3.49,8.9-6.83,13.68-8.09,5.4-14.36-.11S142.47,219,142.47,219Z" style="fill:#B3DDFF"></path><path d="M132.94,180.66c9,0,12.78,4.11,18.32,10.73,3.44,4.11,22.84,28.37,22.84,28.37l4.59-5.35s-.25,7.21,2.77,11.16,8.3,5,8.3,5-3.49,8.9-6.83,13.68-8.09,5.4-14.36-.11S142.47,219,142.47,219Z" style="opacity:0.35000000000000003"></path><path d="M174.1,219.76c-4.22,5.08-5.88,12.82-5.7,15.62,0,0-1.79-7.6,4-17.72Z" style="opacity:0.2"></path><path d="M180.3,212.06l-3.62,4.7s.4,6.48,4.26,10.35a17.39,17.39,0,0,0,8.27,4.69l2.24-4.86S182.06,221.46,180.3,212.06Z" style="fill:#37474f"></path><path d="M207.18,197c-4-3.34-9.44-1.61-11.85,1.24a7.75,7.75,0,0,1,6.21-4.21c2.12-.24,4.42,1.23,5.64,3Z" style="fill:#f28f8f"></path><path d="M153,395.74a4.81,4.81,0,0,0,.2,2.43c.46,1.11,3.56,3.16,5.16,4a10.21,10.21,0,0,1,4.21,4.49c1.9,3.35,4.78,6.94,8.42,8.67a26.41,26.41,0,0,0,15.58,1.84c6.55-1.09,7.13-4.93,7.13-4.93s.4-3.61-1.22-4.21S153,395.74,153,395.74Z" style="fill:#263238"></path><path d="M152.15,391.27a10.49,10.49,0,0,0,.83,4.47c1.88,2.69,6.42,3.63,9,7.31s5.62,9.33,14.14,11.14,15.06-.81,16.67-3.22.21-4.72-5.23-7.76C181.77,400,175,391.51,175,391.5c-2.24-2.9-3.18-6.72-4.42-10.13-.12-.33-.31-.71-.66-.73s-.62.51-.85.87a2.75,2.75,0,0,1-1.64,1,20,20,0,0,1-2.26.64,20.92,20.92,0,0,1-4.66.51,1.92,1.92,0,0,0-1.47.38,1.71,1.71,0,0,0-.29,1.3,12.45,12.45,0,0,0,.22,1.72,1.84,1.84,0,0,1,0,.84,1,1,0,0,1-1,.65,2.26,2.26,0,0,1-1.17-.38,5.19,5.19,0,0,1-2.77-3.52s-.05-.87-.14-1.66a2.15,2.15,0,0,0-1.06,1.23c-.16.65-.11,1.36-.21,2A33.61,33.61,0,0,0,152.15,391.27Z" style="fill:#455a64"></path><path d="M194.27,382.9a4.93,4.93,0,0,0,.46,2.4c.58,1.05,3.89,2.75,5.56,3.39s3,1.73,4.67,4c2.25,3.12,5.5,6.39,9.3,7.72a26.44,26.44,0,0,0,15.7.14c6.39-1.79,6.55-5.67,6.55-5.67s0-3.64-1.67-4.05S194.27,382.9,194.27,382.9Z" style="fill:#263238"></path><path d="M193,378.54a10.37,10.37,0,0,0,1.3,4.36c2.17,2.47,6.77,2.91,9.73,6.29s6.59,8.67,15.26,9.56,14.88-2.43,16.23-5-.31-4.72-6.05-7.15c-6.08-2.58-13.75-10.28-13.76-10.29-2.53-2.65-3.88-6.34-5.48-9.59-.15-.32-.39-.68-.74-.66s-.56.57-.74.95a2.76,2.76,0,0,1-1.53,1.19,21.58,21.58,0,0,1-2.18.88,20.49,20.49,0,0,1-4.58,1,1.92,1.92,0,0,0-1.41.53,1.74,1.74,0,0,0-.16,1.33,14.34,14.34,0,0,0,.41,1.69,1.7,1.7,0,0,1,.12.83,1.05,1.05,0,0,1-.9.75,2.32,2.32,0,0,1-1.21-.25,5.1,5.1,0,0,1-3-3.23,14.63,14.63,0,0,0-.43-1.61,2.15,2.15,0,0,0-.92,1.34c-.09.67,0,1.36,0,2A33.91,33.91,0,0,0,193,378.54Z" style="fill:#455a64"></path><path d="M88.73,262.64l20-2.17,40.67,2.19s24.42,15.63,42.15,28.09c5.15,3.63,10.61,7.59,11.52,15.19,1.28,10.77,8.35,63.46,8.35,63.46-2.5,6.43-15.44,7.5-18.6,5.63-1.82-7.39-2.3-8.88-5.57-19-2.39-7.4-4.09-13.82-6.07-19.87a90.61,90.61,0,0,1-3.59-20.53l-25.86-16.21c5.7,5.8,7.56,7.68,10.55,10.69,2.62,2.65,4.35,6,5.12,14.55,1.53,17,4.19,55.21,4.38,60.4-2.14,3-12.6,6.67-19.46,3.22-1.86-9.78-4-17.16-6.77-30.66-3.07-14.89-3.73-24.75-3.33-30.12,0,0-12.58-7.75-26.92-17.18-6.1-4-14.75-8.26-19-12.9C89.17,289.45,88.45,277.19,88.73,262.64Z" style="fill:#37474f"></path><path d="M151.77,299.41l-14.6-16.58s7.8-2.62,11.87-12.74c0,0-.91,9.59-6.65,13.8l6.83,9.27,28.41,22.46Z" style="fill:#263238"></path><g id="freepik--Top--inject-37"><path d="M88.7,269.52s-.86,5.07.48,7.3c6.06,3.1,15.5,4.36,33.44,1.83,22-3.09,26.61-13.77,27.2-14.84s.08-3.67-.54-6.31Z" style="fill:#B3DDFF"></path><g style="opacity:0.35000000000000003"><path d="M88.7,269.52s-.86,5.07.48,7.3c6.06,3.1,15.5,4.36,33.44,1.83,22-3.09,26.61-13.77,27.2-14.84s.08-3.67-.54-6.31Z"></path></g><path d="M146.65,201.92c-2.68-15.89-8.9-21.41-17.58-21.86l-19.51-.59c-4.12,1.24-17.25,3.87-22.85,5.77s-5,15.58-3.33,23.94,2.22,15,2.33,28.81c.26,13.41-.45,28.11,3,31.53,12.38,7.24,48.47,4.64,60.58-12,2.82-5.21.09-13.22-.4-21.47C148,221.28,147.53,207.19,146.65,201.92Z" style="fill:#B3DDFF"></path><path d="M146.65,201.92c-2.68-15.89-8.9-21.41-17.58-21.86l-19.51-.59c-4.12,1.24-17.25,3.87-22.85,5.77s-5,15.58-3.33,23.94,2.22,15,2.33,28.81c.26,13.41-.45,28.11,3,31.53,12.38,7.24,48.47,4.64,60.58-12,2.82-5.21.09-13.22-.4-21.47C148,221.28,147.53,207.19,146.65,201.92Z" style="opacity:0.2"></path><path d="M101.68,181.41c2.75-.79,6.5-1.53,7.88-1.94l13,.4h0c3.79,2.09,8.93,7.21,3.1,10.34s-15.68.71-19.65-3A15.25,15.25,0,0,1,101.68,181.41Z" style="fill:#37474f"></path><path d="M140.23,131.94a7,7,0,0,0-5.08-6.65,20.73,20.73,0,0,0-6.9-.18c-4.3.38-8.59-.55-12.87-1.08a28.76,28.76,0,0,0-8.64,0,15.94,15.94,0,0,0-7,2.94c-2.79,2.3-3.66,4.34-3.73,8.44-2.65,1.6-3.25,4.77-3.33,8.33-.09,4.41,2.17,8.45,4,12.34,0,0,4.57,9.88,5.64,11.81,1.25,2.25,2.35,4.14,2.35,4.14l-.75-8.32c3-.38,5.48.46,8.32-.71a54.51,54.51,0,0,0,7.7-4,76.75,76.75,0,0,0,7.41-5.24c1.18-.94,2.33-1.93,3.49-2.9a19.41,19.41,0,0,1,2.42-2.22,12.62,12.62,0,0,1,2.2-.83,8.46,8.46,0,0,0,4.36-3.08,6.6,6.6,0,0,0,1-3.83c-.12-1.74-1.06-3.74-2.69-4.36C139.13,136.18,140.29,133.55,140.23,131.94Z" style="fill:#e0e0e0"></path><path d="M110.37,136.65c.09,2.6-2.23,7.29-5.8,10.63a26,26,0,0,1,.53,8.77,4.69,4.69,0,0,1-.6,1.79,2.13,2.13,0,0,1-1.5,1c-.85.1-1.22-.41-1.5-1.06a20.67,20.67,0,0,0-1.38-2.42,4.72,4.72,0,0,0-.79-.92c-1.33-1.15-5.2-2.46-6.82,1.66-1.68,4.28,1.9,9.72,5,10.47,5.36,1.28,6.38-2.37,6.38-2.37l.54,17.53c1.65,4.39,10,8.4,16.63,7.31s4.34-5,1.55-7.64l.12-6.1a25.64,25.64,0,0,0,7-.52c2.73-.63,4.9-3.29,5.89-7.52,1.88-8.06,1.1-19.38-.1-24.35s-4-8.11-5.49-8.79c.09,1.07-.7,3.69-6,4.63C118.43,139.77,114.5,138.18,110.37,136.65Z" style="fill:#ffa8a7"></path><path d="M111.25,152.68a.29.29,0,0,1,0-.13s.07-.06.1-.1.29-.09.39-.1l.32,0h.63a6.93,6.93,0,0,1,1.21.19c.19.05.14.47,0,.43a4.27,4.27,0,0,0-1.28-.11c-.21,0-.42,0-.63.05l-.32,0c-.11,0-.25.08-.35,0A.26.26,0,0,1,111.25,152.68Z" style="fill:#f28f8f"></path><path d="M113,153.83a1.54,1.54,0,0,1,.52-.06l.19,0a1.19,1.19,0,0,1,.23.16c.08.05.08.28,0,.31l-.47.14c-.13,0-.27.05-.4.09l-.11,0s-.1,0,0,0a.72.72,0,0,0-.22.1l-.15.08a.42.42,0,0,1-.29,0,.23.23,0,0,1-.16-.21C112,154.13,112.64,153.9,113,153.83Z" style="fill:#f28f8f"></path><path d="M112.94,155.89a2.44,2.44,0,0,1,1.13-.76.11.11,0,0,1,.12,0,.2.2,0,0,1,0,.13c0,.09,0,.24-.12.28a1.66,1.66,0,0,0-.27.13l-.14.07-.06,0h0l0,0a2.11,2.11,0,0,0-.23.19l-.23.21a.14.14,0,0,1-.23,0A.32.32,0,0,1,112.94,155.89Z" style="fill:#f28f8f"></path><path d="M134.48,151l.13-.1.17-.09.33-.17a2.2,2.2,0,0,1,.56-.2c.14,0,.23.08.24.21a.41.41,0,0,1-.2.38,2.11,2.11,0,0,1-.64.22l-.31.05h-.25c-.07,0-.1-.08-.11-.13S134.41,151,134.48,151Z" style="fill:#f28f8f"></path><path d="M134.68,152.58a.28.28,0,0,0,0,.13.14.14,0,0,0,.13.06H135l.12,0,0,0-.07,0,.13.05.07,0h0a.29.29,0,0,0,.36-.15.49.49,0,0,0,.08-.21.27.27,0,0,0-.06-.21.45.45,0,0,0-.22-.16.65.65,0,0,0-.24,0,.87.87,0,0,0-.42.14.37.37,0,0,0-.12.13A.47.47,0,0,0,134.68,152.58Z" style="fill:#f28f8f"></path><path d="M117.58,162.73a1.67,1.67,0,0,1,1-1.09,1.14,1.14,0,0,1,.68.05c.08,0,.17.05.17.13s-.1.14-.19.16a1.48,1.48,0,0,0-.84.27,1.69,1.69,0,0,0-.23.36c-.07.11-.33.51-.5.39A.24.24,0,0,1,117.58,162.73Z" style="fill:#f28f8f"></path><path d="M122.73,175.33c-4.91-.27-8.91-.8-11.71-2.15-2.06-1-3.93-4.25-4.5-5.41,0,0,.3,4.54,3.1,7,4,3.43,13.06,3.09,13.06,3.09Z" style="fill:#f28f8f"></path><path d="M120.13,152.6c.19,1-1.06-.38-2-.2s-1.76,2-2,1a2,2,0,0,1,1.71-2.15A1.91,1.91,0,0,1,120.13,152.6Z" style="fill:#263238"></path><path d="M132.7,150.94c.19,1-1.06-.39-2-.2s-1.76,2-2,1a2.05,2.05,0,0,1,1.71-2.15A1.9,1.9,0,0,1,132.7,150.94Z" style="fill:#263238"></path><path d="M117.7,147.37l-4.22,1.94a2.45,2.45,0,0,1,1.18-3.16A2.26,2.26,0,0,1,117.7,147.37Z" style="fill:#455a64"></path><path d="M119.24,163.46l5.74,2.12a3,3,0,0,1-3.88,1.92A3.22,3.22,0,0,1,119.24,163.46Z" style="fill:#b16668"></path><path d="M133.38,147.51l-4.3-1.49a2.2,2.2,0,0,1,2.83-1.38A2.31,2.31,0,0,1,133.38,147.51Z" style="fill:#455a64"></path><polygon points="124.86 160.16 130.46 157.65 123.17 147.68 124.86 160.16" style="fill:#f28f8f"></polygon></g><path d="M122.64,167.62a2.7,2.7,0,0,0-2.8-2.57,2.63,2.63,0,0,0-.69.13,3.13,3.13,0,0,0,1.95,2.32A2.92,2.92,0,0,0,122.64,167.62Z" style="fill:#f28f8f"></path><path d="M121.06,189.07c-.75-2.58-1.64-4-4.87-4.46-3.93-.59-9.71-4.39-11.91-7.66l.15,4.81s.77,3.63,7.13,6.43A15.27,15.27,0,0,0,121.06,189.07Z" style="fill:#e0e0e0"></path><path d="M121.06,189.07c.79-3.79,1.47-3.83,2.18-5s-.63-2.62-.63-2.62l.06-3.17s2.41,2.32,2.54,4.11S127.83,188.06,121.06,189.07Z" style="fill:#e0e0e0"></path><path d="M119.26,185.78c-2.56-1.08-6,7.43-6,7.43s-7.19-2-10.25-4.75c-4.39-4-4.67-6.28-4.67-6.28s4.6-7.72,5.79-8l.08,2.29a13.64,13.64,0,0,0,5.6,5.24C114.07,184.14,118.22,184.48,119.26,185.78Z" style="fill:#fafafa"></path><path d="M122.13,185.67c.63-.93,2.1-.9,3.2.67.66.95,2.9,5,2.9,5a15.3,15.3,0,0,0-.56-8.3c-1.58-4.35-3.29-6.66-5-6.76l-.1,5.16a3.4,3.4,0,0,1,.09,2.26A17.2,17.2,0,0,0,122.13,185.67Z" style="fill:#fafafa"></path><g id="freepik--Arm--inject-37"><path d="M88.19,184.77c3.11.62,8.46,12.41,8.24,24.49l1,38,21.71,9.27c-3.94,2.29-7,10.8-7.25,16.8-3-.33-19.24-3.09-29.7-7.77-4.85-2.17-7.46-3.85-8.21-17.48-.84-15.08-2.54-31.69-1.65-43.14C73.3,192.94,76.56,188.05,88.19,184.77Z" style="fill:#B3DDFF"></path><path d="M88.19,184.77c3.11.62,8.46,12.41,8.24,24.49l1,38,21.71,9.27c-3.94,2.29-7,10.8-7.25,16.8-3-.33-19.24-3.09-29.7-7.77-4.85-2.17-7.46-3.85-8.21-17.48-.84-15.08-2.54-31.69-1.65-43.14C73.3,192.94,76.56,188.05,88.19,184.77Z" style="opacity:0.35000000000000003"></path><path d="M97.47,247.21c-4.58-.88-9.74,1.23-12.66,4a11.5,11.5,0,0,1,6.33-5.4c4.58-1.61,6.27-.88,6.27-.88Z" style="opacity:0.2"></path><path d="M118,256.06s3.64,1.22,6.35,2.42a15.77,15.77,0,0,0-6.35,5.17c-2.78,3.82-2.69,10.32-2.69,10.32l-5.86-1a17.83,17.83,0,0,1,1.69-11C114,256.62,118,256.06,118,256.06Z" style="fill:#37474f"></path></g></g></g><polygon points="203.38 357.26 203.38 453.9 200.53 452.25 200.53 355.61 203.38 357.26" style="fill:#B3DDFF"></polygon><polygon points="203.38 357.26 203.38 453.9 200.53 452.25 200.53 355.61 203.38 357.26" style="opacity:0.4"></polygon><polygon points="203.38 357.26 203.38 453.9 206.24 452.25 206.24 355.61 203.38 357.26" style="fill:#B3DDFF"></polygon><polygon points="203.38 357.26 203.38 453.9 206.24 452.25 206.24 355.61 203.38 357.26" style="opacity:0.25"></polygon><polygon points="115.26 306.38 115.26 403.02 112.4 401.37 112.4 304.73 115.26 306.38" style="fill:#B3DDFF"></polygon><polygon points="115.26 306.38 115.26 403.02 112.4 401.37 112.4 304.73 115.26 306.38" style="opacity:0.4"></polygon><polygon points="115.26 306.38 115.26 403.02 118.12 401.37 118.12 304.73 115.26 306.38" style="fill:#B3DDFF"></polygon><polygon points="115.26 306.38 115.26 403.02 118.12 401.37 118.12 304.73 115.26 306.38" style="opacity:0.25"></polygon><polygon points="350.3 272.44 350.3 369.08 347.44 367.43 347.44 270.79 350.3 272.44" style="fill:#B3DDFF"></polygon><polygon points="350.3 272.44 350.3 369.08 353.15 367.43 353.15 270.79 350.3 272.44" style="fill:#B3DDFF"></polygon><polygon points="203.38 342 203.38 362.34 112.41 309.82 112.4 289.47 203.38 342" style="fill:#B3DDFF"></polygon><polygon points="203.38 342 203.38 362.34 112.41 309.82 112.4 289.47 203.38 342" style="opacity:0.4"></polygon><polygon points="203.38 362.34 353.15 275.87 353.16 265.7 203.38 352.17 203.38 362.34" style="fill:#B3DDFF"></polygon><polygon points="203.38 362.34 353.15 275.87 353.16 265.7 203.38 352.17 203.38 362.34" style="opacity:0.25"></polygon><g id="freepik--Desk--inject-37"><polygon points="203.38 352.17 103.59 294.56 262.18 203 361.96 260.61 203.38 352.17" style="fill:#B3DDFF"></polygon><polygon points="203.38 352.17 103.59 294.56 262.18 203 361.96 260.61 203.38 352.17" style="fill:#fff;opacity:0.6000000000000001"></polygon><polygon points="103.59 294.56 103.59 299.64 203.38 357.26 203.38 352.17 103.59 294.56" style="fill:#B3DDFF"></polygon><polygon points="103.59 294.56 103.59 299.64 203.38 357.26 203.38 352.17 103.59 294.56" style="fill:#fff;opacity:0.25"></polygon><polygon points="203.38 357.26 361.96 265.7 361.96 260.61 203.38 352.17 203.38 357.26" style="fill:#B3DDFF"></polygon><polygon points="203.38 357.26 361.96 265.7 361.96 260.61 203.38 352.17 203.38 357.26" style="fill:#fff;opacity:0.4"></polygon></g><g id="freepik--Clipboard--inject-37"><g id="freepik--List--inject-37"><path d="M241.4,255.66v1a1,1,0,0,0,.48.83L295.8,288.6a1.08,1.08,0,0,0,1,0l38.63-22.31a1.06,1.06,0,0,0,.48-.83v-1a1.08,1.08,0,0,0-.48-.83l-53.93-31.13a1.08,1.08,0,0,0-1,0l-38.62,22.3A1.05,1.05,0,0,0,241.4,255.66Z" style="fill:#B3DDFF"></path><path d="M335.45,263.71c.2.15.18.37-.06.51l-38.63,22.3a1.06,1.06,0,0,1-.48.11v2.08a1.09,1.09,0,0,0,.48-.11l38.63-22.31a1,1,0,0,0,.47-.83v-1A1.07,1.07,0,0,0,335.45,263.71Z" style="opacity:0.5"></path><path d="M241.8,254.89h0s0,0,0,0h0l-.06.07h0a1.08,1.08,0,0,0-.24.52.37.37,0,0,0,0,.11v1a1,1,0,0,0,.48.83L295.8,288.6a1.06,1.06,0,0,0,.48.11v-2.08a1.06,1.06,0,0,1-.48-.11l-53.92-31.13a.43.43,0,0,1-.19-.19.27.27,0,0,1,.06-.27Z" style="opacity:0.6000000000000001"></path><g style="opacity:0.30000000000000004"><path d="M241.43,255.42a1.68,1.68,0,0,0,0,.18.07.07,0,0,0,0,0A.59.59,0,0,1,241.43,255.42Z"></path><path d="M335.39,264.22l-38.63,22.3a1.1,1.1,0,0,1-1,0l-53.92-31.13a.36.36,0,0,1-.18-.19.25.25,0,0,1,.05-.27l0,0a0,0,0,0,1,0,0l.08-.06,38.62-22.3a1.08,1.08,0,0,1,1,0l53.93,31.13.06,0h0C335.65,263.87,335.62,264.08,335.39,264.22Z"></path><path d="M241.69,255l0,0h0Z" style="opacity:0.15"></path></g><path d="M256,241.87c0,.87,1.21,1.78,1.54,2.55a1.67,1.67,0,0,1,.08.2c-.17.55-.68.93-.79,1.29a1.22,1.22,0,0,0,0,.26c0,.13,0,.64,0,.73s0,.31.07.51a3.5,3.5,0,0,1-.12.53,3.14,3.14,0,0,0-.18.92v.71a.65.65,0,0,0,.37.66l2.16,1.25,16.19-9.35v-.72l-2.17-1.25A1.88,1.88,0,0,0,272,240h-.14c-.36,0-.84,0-1.48.1a13.27,13.27,0,0,1-2.44.06l-.62,0a3.46,3.46,0,0,0-.45,0,10.6,10.6,0,0,1-3.77.42h-.06c-1.33-.19-2.9-.89-4.4-.89h-.15a3.43,3.43,0,0,0-1.71.46c-.58.33-.8.69-.8,1Zm2.46.5a.9.9,0,0,1,.39-.38,1.61,1.61,0,0,1,.4-.17,4.11,4.11,0,0,1,3,.45,2,2,0,0,1,.87.85.93.93,0,0,1-.39.37,3.19,3.19,0,0,1-2.2.17,4.06,4.06,0,0,1-1.17-.45A2,2,0,0,1,258.46,242.37Z" style="fill:#263238"></path><path d="M272,240h-.14c-.36,0-.84,0-1.48.1a13.27,13.27,0,0,1-2.44.06l-.62,0a3.46,3.46,0,0,0-.45,0,10.6,10.6,0,0,1-3.77.42h-.06c-1.33-.19-2.9-.89-4.4-.89h-.15a3.43,3.43,0,0,0-1.71.46c-2,1.14.27,2.52.74,3.61s-.55,1.67-.71,2.21.28.84-.09,2-.09,1.41.19,1.57l2.16,1.25,16.19-9.35-2.17-1.25A1.88,1.88,0,0,0,272,240Zm-12.13,9.1A1,1,0,0,1,259,249c-.28-.17-.34-.4-.13-.52a1,1,0,0,1,.89.08C260,248.7,260.1,248.93,259.89,249.05Zm2.8-5.56a3.19,3.19,0,0,1-2.2.17,4.06,4.06,0,0,1-1.17-.45c-1.06-.61-1.27-1.48-.47-1.94a1.61,1.61,0,0,1,.4-.17,4.16,4.16,0,0,1,3,.45C263.27,242.16,263.49,243,262.69,243.49Zm9.69-1.65a1,1,0,0,1-.89-.07c-.28-.17-.34-.4-.13-.52a1,1,0,0,1,.89.08C272.53,241.49,272.59,241.72,272.38,241.84Z" style="fill:#37474f"></path><path d="M294.78,283.13l33.61-19.41a.62.62,0,0,0,.29-.49v-.38a.64.64,0,0,0-.29-.5L284,236.71a.66.66,0,0,0-.58,0L249.8,256.12a.63.63,0,0,0-.29.5V257a.63.63,0,0,0,.29.5l44.41,25.64A.64.64,0,0,0,294.78,283.13Z" style="fill:#fafafa"></path><path d="M328.46,262.41c.09.08.07.2-.06.27l-33.62,19.41a.54.54,0,0,1-.29.07v1a.54.54,0,0,0,.29-.07l33.61-19.41a.62.62,0,0,0,.29-.49v-.38A.59.59,0,0,0,328.46,262.41Z" style="fill:#f0f0f0"></path><path d="M249.74,256.16a.6.6,0,0,0-.08.08l0,.05a.46.46,0,0,0-.09.15.43.43,0,0,0,0,.11.17.17,0,0,0,0,.07V257a.63.63,0,0,0,.29.5l44.41,25.64a.53.53,0,0,0,.28.07v-1a.53.53,0,0,1-.28-.07L249.8,256.45C249.66,256.37,249.64,256.25,249.74,256.16Z" style="fill:#e0e0e0"></path><path d="M261.19,251.47v.73a1.63,1.63,0,0,0,.38,1l19.8-11.42V241a4.25,4.25,0,0,0-1.93-.49h0a3.28,3.28,0,0,0-1.32.27c-1.43.66-1.86.86-2.73,1.23a1.44,1.44,0,0,1-1.35-.19l0,0-.6-.54-1.6-1.49a1,1,0,0,0-.76-.24h0a3.08,3.08,0,0,0-.38,0,5.34,5.34,0,0,1-1.64,0,3.6,3.6,0,0,1-1.79-.69,4.16,4.16,0,0,0-2.75-1h-.08a4,4,0,0,0-1.83.43,2,2,0,0,0-1.2,2.14,1.92,1.92,0,0,0,.69,1.85,1.44,1.44,0,0,1,.44.84,1.89,1.89,0,0,1-.39.92.77.77,0,0,0-.21.48v.72a.45.45,0,0,0,.18.36l1.85,1.7.6.55.06.07a1.73,1.73,0,0,1-.14.19L262,250A2,2,0,0,0,261.19,251.47Zm5.29-10.86a1.42,1.42,0,0,1-.7.74,2.81,2.81,0,0,1-2.08.12,2.49,2.49,0,0,1-.79-.46,1.48,1.48,0,0,1-.38-.55,1.42,1.42,0,0,1,.7-.74l.27-.12a2.71,2.71,0,0,1,2.6.45A1.59,1.59,0,0,1,266.48,240.61Z" style="fill:#37474f"></path><path d="M279.44,240.55h0a3.28,3.28,0,0,0-1.32.27c-1.43.66-1.86.86-2.73,1.23a1.44,1.44,0,0,1-1.35-.19l0,0-.6-.54-1.6-1.49a1,1,0,0,0-.76-.24h0a3.08,3.08,0,0,0-.38,0,5.34,5.34,0,0,1-1.64,0,3.6,3.6,0,0,1-1.79-.69,4.16,4.16,0,0,0-2.75-1h-.08a4,4,0,0,0-1.83.43,1.89,1.89,0,0,0-.51,3.27,2,2,0,0,1,.05,2.48c-.46.55,0,.84,0,.84l1.85,1.71.6.54c.44.41-.08,1-.08,1L262,250c-1,.93-1,1.69-.44,2.43L281.37,241A4.25,4.25,0,0,0,279.44,240.55Zm-13.34-1.21a1.17,1.17,0,0,1-.32,2,2.81,2.81,0,0,1-2.08.12,2.49,2.49,0,0,1-.79-.46,1.17,1.17,0,0,1,.32-2l.27-.12A2.74,2.74,0,0,1,266.1,239.34Z" style="fill:#455a64"></path></g><path d="M265.09,262.06l10.51,6.07a.81.81,0,0,0,.68,0l14.5-8.38c.19-.11.19-.28,0-.39l-10.5-6.07a.76.76,0,0,0-.69,0l-14.5,8.37A.21.21,0,0,0,265.09,262.06Z" style="fill:#B3DDFF;opacity:0.1"></path><polygon points="275.94 266.48 267.94 261.86 268.5 261.55 276.49 266.16 275.94 266.48" style="fill:#B3DDFF"></polygon><polygon points="276.37 266.87 277.17 266.41 277.41 266.55 276.61 267.01 276.37 266.87" style="fill:#455a64"></polygon><polygon points="276.99 265.87 270.59 262.18 271.14 261.86 277.54 265.56 276.99 265.87" style="fill:#B3DDFF"></polygon><polygon points="277.42 266.26 278.22 265.8 278.46 265.94 277.66 266.41 277.42 266.26" style="fill:#455a64"></polygon><polygon points="278.59 264.95 271.64 260.94 272.19 260.62 279.14 264.63 278.59 264.95" style="fill:#B3DDFF"></polygon><polygon points="279.02 265.34 279.82 264.88 280.06 265.02 279.26 265.48 279.02 265.34" style="fill:#455a64"></polygon><polygon points="279.63 264.34 273.89 261.03 274.44 260.71 280.19 264.03 279.63 264.34" style="fill:#B3DDFF"></polygon><polygon points="280.06 264.73 280.86 264.27 281.11 264.41 280.31 264.88 280.06 264.73" style="fill:#455a64"></polygon><polygon points="281.24 263.42 278.03 261.57 278.58 261.25 281.79 263.1 281.24 263.42" style="fill:#B3DDFF"></polygon><polygon points="281.66 263.81 282.46 263.35 282.7 263.49 281.91 263.95 281.66 263.81" style="fill:#455a64"></polygon><polygon points="282.28 262.82 278.64 260.72 279.2 260.4 282.83 262.5 282.28 262.82" style="fill:#B3DDFF"></polygon><polygon points="282.71 263.21 283.51 262.75 283.75 262.89 282.95 263.35 282.71 263.21" style="fill:#455a64"></polygon><polygon points="283.88 261.89 279.5 259.36 280.05 259.04 284.43 261.57 283.88 261.89" style="fill:#B3DDFF"></polygon><polygon points="284.32 262.28 285.12 261.82 285.36 261.96 284.56 262.42 284.32 262.28" style="fill:#455a64"></polygon><polygon points="284.93 261.29 282.08 259.64 282.63 259.32 285.48 260.97 284.93 261.29" style="fill:#B3DDFF"></polygon><polygon points="285.37 261.68 286.17 261.21 286.41 261.36 285.61 261.82 285.37 261.68" style="fill:#455a64"></polygon><polygon points="286.53 260.36 285.28 259.64 285.83 259.33 287.08 260.05 286.53 260.36" style="fill:#B3DDFF"></polygon><polygon points="275.94 266.48 267.94 261.86 268.5 261.55 276.49 266.16 275.94 266.48" style="fill:#B3DDFF"></polygon><polygon points="278.59 264.95 271.64 260.94 272.19 260.62 279.14 264.63 278.59 264.95" style="fill:#B3DDFF"></polygon><polygon points="281.24 263.42 278.03 261.57 278.58 261.25 281.79 263.1 281.24 263.42" style="fill:#B3DDFF"></polygon><polygon points="283.88 261.89 279.5 259.36 280.05 259.04 284.43 261.57 283.88 261.89" style="fill:#B3DDFF"></polygon><polygon points="286.53 260.36 285.28 259.64 285.83 259.33 287.08 260.05 286.53 260.36" style="fill:#B3DDFF"></polygon><polygon points="286.96 260.75 287.76 260.29 288.01 260.43 287.21 260.89 286.96 260.75" style="fill:#455a64"></polygon><polygon points="287.58 259.76 286.96 259.4 287.51 259.08 288.13 259.44 287.58 259.76" style="fill:#B3DDFF"></polygon><polygon points="288.01 260.15 288.81 259.68 289.06 259.83 288.26 260.29 288.01 260.15" style="fill:#455a64"></polygon><polygon points="275.66 257.08 275.06 257.43 275.66 257.78 276.26 257.43 275.66 257.08" style="fill:#B3DDFF"></polygon><polygon points="275.66 257.08 275.06 257.43 275.66 257.78 276.26 257.43 275.66 257.08" style="opacity:0.25"></polygon><path d="M280.38,254.45l-4.28,2.48c-.09.05-.09.13,0,.18l.11.07a.36.36,0,0,0,.32,0l4.28-2.48c.09,0,.09-.13,0-.18l-.12-.07A.34.34,0,0,0,280.38,254.45Z" style="fill:#455a64"></path><polygon points="276.66 257.66 276.06 258.01 276.66 258.35 277.26 258.01 276.66 257.66" style="fill:#B3DDFF"></polygon><path d="M281.38,255l-4.29,2.47a.1.1,0,0,0,0,.19l.11.06a.36.36,0,0,0,.32,0l4.28-2.47c.09-.05.09-.13,0-.18l-.12-.07A.34.34,0,0,0,281.38,255Z" style="fill:#455a64"></path><polygon points="275.94 266.48 267.94 261.86 268.5 261.55 276.49 266.16 275.94 266.48" style="fill:#B3DDFF"></polygon><polygon points="278.59 264.95 271.64 260.94 272.19 260.62 279.14 264.63 278.59 264.95" style="fill:#B3DDFF"></polygon><polygon points="281.24 263.42 278.03 261.57 278.58 261.25 281.79 263.1 281.24 263.42" style="fill:#B3DDFF"></polygon><polygon points="283.88 261.89 279.5 259.36 280.05 259.04 284.43 261.57 283.88 261.89" style="fill:#B3DDFF"></polygon><polygon points="275.94 266.48 267.94 261.86 268.5 261.55 276.49 266.16 275.94 266.48" style="fill:#B3DDFF"></polygon><polygon points="278.59 264.95 271.64 260.94 272.19 260.62 279.14 264.63 278.59 264.95" style="fill:#B3DDFF"></polygon><polygon points="281.24 263.42 278.03 261.57 278.58 261.25 281.79 263.1 281.24 263.42" style="fill:#B3DDFF"></polygon><polygon points="283.88 261.89 279.5 259.36 280.05 259.04 284.43 261.57 283.88 261.89" style="fill:#B3DDFF"></polygon><polygon points="286.53 260.36 285.28 259.64 285.83 259.33 287.08 260.05 286.53 260.36" style="fill:#B3DDFF"></polygon><polygon points="275.94 266.48 267.94 261.86 268.5 261.55 276.49 266.16 275.94 266.48" style="opacity:0.25"></polygon><polygon points="278.59 264.95 271.64 260.94 272.19 260.62 279.14 264.63 278.59 264.95" style="opacity:0.25"></polygon><polygon points="281.24 263.42 278.03 261.57 278.58 261.25 281.79 263.1 281.24 263.42" style="opacity:0.25"></polygon><polygon points="283.88 261.89 279.5 259.36 280.05 259.04 284.43 261.57 283.88 261.89" style="opacity:0.25"></polygon><polygon points="286.53 260.36 285.28 259.64 285.83 259.33 287.08 260.05 286.53 260.36" style="opacity:0.25"></polygon><path d="M279.85,270.58l13.84,8a1,1,0,0,0,.9,0l14.29-8.25c.25-.14.25-.37,0-.52l-13.84-8a1,1,0,0,0-.9,0l-14.29,8.25A.28.28,0,0,0,279.85,270.58Z" style="fill:#B3DDFF;opacity:0.1"></path><polygon points="282.3 269.87 281.51 270.32 282.3 270.78 283.09 270.32 282.3 269.87" style="fill:#B3DDFF"></polygon><path d="M285.42,268.3l-2.61,1.51c-.07,0-.07.1,0,.14l.21.12a.28.28,0,0,0,.25,0l2.61-1.5c.07,0,.07-.11,0-.14l-.22-.13A.26.26,0,0,0,285.42,268.3Z" style="fill:#455a64"></path><polygon points="286.77 267.28 285.98 267.74 286.77 268.19 287.56 267.74 286.77 267.28" style="fill:#B3DDFF"></polygon><polygon points="286.77 267.28 285.98 267.74 286.77 268.19 287.56 267.74 286.77 267.28" style="opacity:0.25"></polygon><path d="M289.93,265.72l-2.6,1.51c-.07,0-.07.1,0,.14l.21.13a.36.36,0,0,0,.25,0L290.4,266a.08.08,0,0,0,0-.14l-.22-.13A.36.36,0,0,0,289.93,265.72Z" style="fill:#455a64"></path><polygon points="291.25 264.7 290.46 265.15 291.25 265.61 292.04 265.15 291.25 264.7" style="fill:#B3DDFF"></polygon><polygon points="291.25 264.7 290.46 265.15 291.25 265.61 292.04 265.15 291.25 264.7" style="opacity:0.4"></polygon><path d="M294.45,263.15l-2.6,1.5c-.07,0-.07.11,0,.14l.21.13a.28.28,0,0,0,.25,0l2.6-1.51c.07,0,.07-.1,0-.14l-.21-.12A.28.28,0,0,0,294.45,263.15Z" style="fill:#455a64"></path><path d="M299.46,268l-.21-.1-.18-.07a8.47,8.47,0,0,0-1.48-.42l-.49-.08a8.26,8.26,0,0,0-1-.09h-.51l-.4,0-.33,0-.49.05-.29,0-.17,0-.25.05a7.2,7.2,0,0,0-.86.23l-.3.1-.35.14a3.36,3.36,0,0,0-.33.16l-.32.17c-2.33,1.34-2.33,3.52,0,4.86a9.32,9.32,0,0,0,8.42,0c2.33-1.34,2.33-3.52,0-4.86A4,4,0,0,0,299.46,268Zm-.46,4.57a6.63,6.63,0,0,1-3.08.78h-.54a6.31,6.31,0,0,1-3-.77c-1.82-1.05-1.82-2.75,0-3.8a4.73,4.73,0,0,1,.64-.31l.53-.19.28-.07.23,0,.28-.06.26,0h.08l.36,0h.77a8.33,8.33,0,0,1,1.33.14,5.78,5.78,0,0,1,1.82.65C300.82,269.83,300.82,271.53,299,272.58Z" style="fill:#B3DDFF"></path><path d="M297.59,267.42l-.41.71a8.33,8.33,0,0,0-1.33-.14h-.77l-.36,0h-.08l-.26,0-.28.06-.23,0-.28.07-.53.19a3.78,3.78,0,0,0-.64.31l-.92-.53.32-.17a3.36,3.36,0,0,1,.33-.16l.35-.14.3-.1a7.2,7.2,0,0,1,.86-.23l.25-.05.17,0,.29,0,.49-.05.33,0,.4,0h.51a8.26,8.26,0,0,1,1,.09Z" style="opacity:0.25"></path><path d="M299.92,268.25l-.92.53a5.78,5.78,0,0,0-1.82-.65l.41-.71a8.47,8.47,0,0,1,1.48.42l.18.07.21.1A4,4,0,0,1,299.92,268.25Z" style="opacity:0.4"></path><polygon points="261.64 259.98 290.06 243.57 287.17 241.9 258.75 258.31 261.64 259.98" style="fill:#B3DDFF"></polygon><g style="opacity:0.30000000000000004"><path d="M283.3,252.73a.25.25,0,0,1-.21-.12.24.24,0,0,1,.09-.32l11.2-6.46a.23.23,0,0,1,.32.08.24.24,0,0,1-.09.33l-11.19,6.46A.27.27,0,0,1,283.3,252.73Z" style="fill:#455a64"></path><path d="M285.23,253.85a.22.22,0,0,1-.2-.12.24.24,0,0,1,.08-.33l11.2-6.46a.23.23,0,0,1,.32.09.23.23,0,0,1-.08.32l-11.2,6.47A.27.27,0,0,1,285.23,253.85Z" style="fill:#455a64"></path><path d="M287.16,255a.23.23,0,0,1-.2-.11.24.24,0,0,1,.09-.33l11.19-6.46a.22.22,0,0,1,.32.09.23.23,0,0,1-.08.32l-11.2,6.46A.21.21,0,0,1,287.16,255Z" style="fill:#455a64"></path><path d="M289.1,256.08a.24.24,0,0,1-.12-.44l11.19-6.47a.24.24,0,1,1,.24.42l-11.19,6.46Z" style="fill:#455a64"></path><path d="M291,257.19a.26.26,0,0,1-.21-.11.25.25,0,0,1,.09-.33l11.19-6.46a.24.24,0,0,1,.33.09.24.24,0,0,1-.09.32l-11.19,6.46Z" style="fill:#455a64"></path></g><g style="opacity:0.30000000000000004"><path d="M298.76,261.65a.22.22,0,0,1-.2-.12.23.23,0,0,1,.08-.32l11.2-6.46a.23.23,0,0,1,.32.08.24.24,0,0,1-.08.33l-11.2,6.46Z" style="fill:#455a64"></path><path d="M300.69,262.77a.22.22,0,0,1-.2-.12.24.24,0,0,1,.09-.33l11.19-6.46a.23.23,0,0,1,.32.09.23.23,0,0,1-.08.32l-11.2,6.47A.21.21,0,0,1,300.69,262.77Z" style="fill:#455a64"></path><path d="M302.63,263.88a.24.24,0,0,1-.12-.44L313.7,257a.24.24,0,0,1,.33.08.25.25,0,0,1-.09.33l-11.19,6.46Z" style="fill:#455a64"></path><path d="M304.56,265a.25.25,0,0,1-.21-.12.26.26,0,0,1,.09-.33l11.19-6.46a.24.24,0,0,1,.33.09.24.24,0,0,1-.09.32L304.68,265Z" style="fill:#455a64"></path><path d="M306.49,266.11a.25.25,0,0,1-.21-.12.24.24,0,0,1,.09-.32l11.19-6.46a.24.24,0,0,1,.33.08.24.24,0,0,1-.09.33l-11.19,6.46A.27.27,0,0,1,306.49,266.11Z" style="fill:#455a64"></path><path d="M308.42,267.23a.25.25,0,0,1-.21-.12.24.24,0,0,1,.09-.32l11.19-6.47a.24.24,0,0,1,.24.42l-11.19,6.46A.27.27,0,0,1,308.42,267.23Z" style="fill:#455a64"></path></g></g><g id="freepik--Folder--inject-37"><polygon points="236.51 280.49 185.11 310.17 226.13 333.85 277.4 304.25 236.51 280.49" style="opacity:0.2"></polygon><path d="M275.31,302.59a.86.86,0,0,0,0-1.62l-39.49-23L184.41,307.7,224,330.58a3.11,3.11,0,0,0,2.79,0l29.36-16.95,4.92.92a1.31,1.31,0,0,0,.91-.15l12.19-7a1.35,1.35,0,0,0,.45-1.9l-1.29-1.77Z" style="fill:#B3DDFF"></path><path d="M275.31,302.59a.86.86,0,0,0,0-1.62l-39.49-23L184.41,307.7,224,330.58a3.11,3.11,0,0,0,2.79,0l29.36-16.95,4.92.92a1.31,1.31,0,0,0,.91-.15l12.19-7a1.35,1.35,0,0,0,.45-1.9l-1.29-1.77Z" style="opacity:0.15"></path><polygon points="235.82 278.02 186.15 306.7 225.44 329.39 276.71 299.79 235.82 278.02" style="fill:#f0f0f0"></polygon><path d="M184.41,307.7,224,326.07a3.48,3.48,0,0,0,2.86-.12l48.48-28c.77-.45.74-1.11-.06-1.49L235.82,278Z" style="fill:#B3DDFF"></path></g><g id="freepik--Laptop--inject-37"><path id="freepik--shadow--inject-37" d="M234.15,273.37l-36.26-20.94a2.09,2.09,0,0,0-2.08,0L132.9,288.76a.47.47,0,0,0,0,.8l36.6,21.13Z" style="opacity:0.1"></path><path d="M231.45,269v.81a3.34,3.34,0,0,1-1.68,2.9L171.18,306.5a3.34,3.34,0,0,1-1.67.44,3.41,3.41,0,0,1-1.69-.44l-31.94-18.38a3.38,3.38,0,0,1-1.67-2.9v-1.13h0a.43.43,0,0,0,.21.37l35.08,20.25Z" style="fill:#37474f"></path><path d="M169.51,304.72V307a3.35,3.35,0,0,0,1.67-.45l58.59-33.83a3.34,3.34,0,0,0,1.68-2.9V269Z" style="fill:#263238"></path><path d="M231.45,269l-34.74-20a2,2,0,0,0-2,0l-60.27,34.8a.44.44,0,0,0,0,.77l35.07,20.25Z" style="fill:#455a64"></path><polygon points="169.19 301.77 150.45 290.96 205.24 259.33 224.08 270.08 169.19 301.77" style="fill:#37474f"></polygon><polygon points="224.08 270.08 223.36 270.49 205.24 260.15 151.16 291.38 150.45 290.96 205.24 259.33 224.08 270.08" style="fill:#263238"></polygon><polygon points="159.97 271.7 160.32 271.9 169.5 277.21 185.84 267.77 186.18 267.58 176.65 262.08 159.97 271.7" style="fill:#263238"></polygon><polygon points="160.32 271.9 169.5 277.21 185.84 267.77 176.65 262.47 160.32 271.9" style="fill:#37474f"></polygon><path d="M172.44,272.44c-1.55-.27-4.2,4.79-7.3,4.15s-8.62-1.13-11.7-.4-7.42,2.85-11.2,2.4c-3.18-.38-8-1-13.6-2.09s-9.58-1.8-13.3-2.53c0,0-.09-6.49,2.69-10.31a15.75,15.75,0,0,1,6.35-5.18l15.17,5.82c5.93.3,9.35-1.61,13.11-3.73.82-.46,1.68-.89,2.53-1.29a9.23,9.23,0,0,1,3-.6c2.22-.24,4.2-.21,6.62-.57a.84.84,0,0,1,.5.08c.4.23.31.85.1,1.26a6,6,0,0,1-2.47,2.36,26.56,26.56,0,0,1-3.2,1.26,17.49,17.49,0,0,1,2.4.3c3.42.48,7.92,3.43,11.05,5.57S174,272.71,172.44,272.44Z" style="fill:#ffa8a7"></path><path d="M158.05,261.6a11.11,11.11,0,0,0-4.27,1.51,24.62,24.62,0,0,1,5.92,0,25.92,25.92,0,0,0,3.2-1.26,6.19,6.19,0,0,0,2.26-2C163.64,261.29,160.19,261.44,158.05,261.6Z" style="fill:#f28f8f"></path><path d="M170.45,305.21a4,4,0,0,0,3.42-.26l58.34-33.68a4,4,0,0,0,1.93-2.78l6.38-38.08a3.68,3.68,0,0,0,.06-.66,4,4,0,0,0-1.18-2.82l-60.62,35a3,3,0,0,0-1.43,2.05Z" style="fill:#37474f"></path><path d="M169.51,304.72l.39.23a3.94,3.94,0,0,0,.55.26l6.9-41.22a3,3,0,0,1,1.43-2.05l60.62-35a3.82,3.82,0,0,0-.81-.61l-60.74,35.07a3,3,0,0,0-1.43,2.05Z" style="fill:#455a64"></path><path d="M177.92,262.72l-.94-.54a2.88,2.88,0,0,0-.56,1.26l-6.91,41.28.39.23a3.94,3.94,0,0,0,.55.26l6.9-41.22A2.82,2.82,0,0,1,177.92,262.72Z" style="fill:#263238"></path><path d="M203.31,270.05c.42-2.55,3.06-5.93,5.88-7.56s4.76-.88,4.33,1.67-3.06,5.94-5.88,7.56S202.88,272.6,203.31,270.05Z" style="fill:#B3DDFF"></path></g></g></g><g id="freepik--character-2--inject-37"><g id="freepik--character--inject-37"><g id="freepik--Legs--inject-37"><path d="M300.64,377.26s0-4.51,3.19-6a1.72,1.72,0,0,1,1.84.06s-3,.75-3.49,6.08c0,0-.13.36-.81.31C301.14,377.67,300.64,377.63,300.64,377.26Z" style="fill:#fafafa"></path><path d="M297.87,373.34c-4.93.06-7.65-.57-13.54-.47-4.45.08-6.07,5.5-.7,9.94a30.52,30.52,0,0,0,7.68,4.19c7,2.14,12,.92,15.7,1.35,4.8.57,6.05,1.92,10,2.21,5.14.38,7-.43,8.37-2,1.61-3.72.59-5.07,1.14-9.43.31-2.41.14-3.43-.12-3.4C324.77,375.54,300.27,373.32,297.87,373.34Z" style="fill:#455a64"></path><path d="M326.25,376.09c.76-2.4,3.07-12.28,3.07-12.28s-3.21,2.29-9.21,1.49c-3.05-.41-5.1-8.35-5.1-8.35l-1.74,13.21c-1.19,3-7,3.18-12.71,3.24-1,0-1.94,0-2.94-.07h-.05c-3.06.22-5.87,2.42-2.4,4.61s8.8,2.52,13.7,2.78C314.76,381,324.47,381.67,326.25,376.09Z" style="fill:#f28f8f"></path><path d="M320,303.26c-1.75,13.25-6.08,60.8-6.08,60.8s7.66,6,14.9,2.44c5.89-22,17.46-46.2,15.81-61.68Z" style="fill:#263238"></path><path d="M271.55,388.8c-4.93.06-7.66-.58-13.55-.47-4.44.08-6.06,5.5-.69,9.94a30.84,30.84,0,0,0,7.68,4.19c7,2.13,12,.92,15.7,1.35,4.8.57,6.05,1.92,10,2.21,5.14.38,7-.43,8.37-2,1.61-3.71.59-5.06,1.14-9.42.31-2.41.14-3.43-.12-3.4C298.45,391,274,388.77,271.55,388.8Z" style="fill:#455a64"></path><path d="M299.93,391.54c.76-2.39,3.07-12.27,3.07-12.27s-3.21,2.29-9.21,1.48c-3.05-.41-5.1-8.34-5.1-8.34L287,385.62c-1.19,3-7,3.18-12.71,3.24-1,0-1.95,0-2.94-.07h-.06c-3.05.21-5.86,2.41-2.39,4.6s8.8,2.52,13.7,2.79C288.44,396.5,298.15,397.12,299.93,391.54Z" style="fill:#f28f8f"></path><path d="M295.08,318.2c-2.19,10.05-5.6,47.69-7.86,62.31a24.09,24.09,0,0,0,15.07,2.61c3.45-11.09,19.86-50.47,16.09-62.84-2.38-7.81-10.82-4.62-10.82-4.62Z" style="fill:#37474f"></path></g><path d="M426.59,423.45l-9.17-76.52-7.49-.38,12.88,76.89h0a1,1,0,0,0,.5.67,2.93,2.93,0,0,0,2.67.14.9.9,0,0,0,.59-.8Z" style="fill:#263238"></path><path d="M323.9,340h-7.5l-10.92,72.25h0a.9.9,0,0,0,.54.83,3,3,0,0,0,2.68,0,1,1,0,0,0,.53-.65h0Z" style="fill:#37474f"></path><path d="M316.4,340l-3,20.16a29.38,29.38,0,0,0,5.76,3.52L323.9,340Z" style="fill:#263238"></path><path d="M376.46,449.11l-7-77.81-7.5-.38,10.77,78.18h0a1.06,1.06,0,0,0,.5.67,3,3,0,0,0,2.67.13.91.91,0,0,0,.59-.79Z" style="fill:#37474f"></path><path d="M370.44,382.67l-1-11.37-7.5-.38,1.7,12.3C365.28,383.73,368.25,383.37,370.44,382.67Z" style="fill:#263238"></path><path d="M364.85,316.19h-7.5l-10.92,72.25h0a.9.9,0,0,0,.54.83,3,3,0,0,0,2.68,0,1,1,0,0,0,.53-.65h0Z" style="fill:#263238"></path><path d="M311.78,338.51c-1.06-5.92,3.77-10.54,12.84-16.66a214.3,214.3,0,0,1,26.28-14.77c7.58-3.48,15.35-3.16,25.06,1.83,13.5,6.94,54.11,31.57,54.11,31.57s-60.72,34.28-72.4,32.74S316.78,352.7,314.47,346,311.78,338.51,311.78,338.51Z" style="fill:#B3DDFF"></path><g style="opacity:0.6000000000000001"><path d="M311.78,338.51c-1.06-5.92,3.77-10.54,12.84-16.66a214.3,214.3,0,0,1,26.28-14.77c7.58-3.48,15.35-3.16,25.06,1.83,13.5,6.94,54.11,31.57,54.11,31.57s-60.72,34.28-72.4,32.74S316.78,352.7,314.47,346,311.78,338.51,311.78,338.51Z" style="fill:#fff"></path></g><path d="M363.53,366c-8.71,7.89-17.83,1.1-32.24-8.25-16.31-10.59-19.51-19.25-19.51-19.25s0,6.49,1.21,9.53,3.86,6.49,15.62,14.6,20.29,12.18,28.2,13.68l6.24-.86" style="fill:#B3DDFF"></path><path d="M331.29,357.76c-16.31-10.59-19.51-19.25-19.51-19.25s0,6.49,1.21,9.53,3.86,6.49,15.62,14.6,20.29,12.18,28.2,13.68l6.24-.86.48-9.45C354.82,373.9,345.7,367.11,331.29,357.76Z" style="fill:#fff;opacity:0.25"></path><g id="freepik--top--inject-37"><path d="M399.76,307.22s-24.89-7.18-41.87-11c-14.33-3.19-21.19-4.21-25.36-2.9s-6.55,4.37-9.36,9.83c-2.37,4.61-4.54,9.58-4.54,9.58s29.5,14.53,45.59,16.41S399.76,307.22,399.76,307.22Z" style="fill:#263238"></path><path d="M400.6,307.22c5.25,15.15,4.41,29.64-4.77,38.18-5.27,4.9-29.92,18.73-46,13.4-15.85-5.25-45.46-33-48.75-35.43s-6.3-4.12-6-5.17C299.51,303.5,306,302.35,318,305c14.68,3.23,43.67,19.73,43.67,19.73Z" style="fill:#37474f"></path><polygon points="340.25 226.26 344.85 244.84 365.46 238.29 359.58 218.2 340.25 226.26" style="fill:#f28f8f"></polygon><path d="M327.3,209.58a5.42,5.42,0,1,1,5.42-5.42A5.43,5.43,0,0,1,327.3,209.58Zm0-9.84a4.43,4.43,0,1,0,4.43,4.42A4.42,4.42,0,0,0,327.3,199.74Z" style="fill:#263238"></path><path d="M325.92,206.15s-3.68,6.21-3.12,6.82S326,214.1,326,214.1Z" style="fill:#b16668"></path><path d="M368.26,185.81a5.44,5.44,0,0,0-.37-1.62,9.28,9.28,0,0,0-2.06-2.75A15.61,15.61,0,0,0,360,178a25.58,25.58,0,0,0-10.46-1.16c-3.39.29-6.53,1.14-10,.71a52.26,52.26,0,0,0-7.77-.82c-2.61.08-5.34.93-7,3a7.79,7.79,0,0,0-1.57,5.35,13.16,13.16,0,0,0,1.65,5.41c-2.43,1.95-2.8,5.69-1.55,8.54,1.71,3.9,5.69,6.1,8.95,8.54q3.84,2.88,7.38,6.13a46,46,0,0,1,3.35,3.2l.19.24a5.42,5.42,0,0,1-2.58-.06s.91,7.73,7.47,10.27c0,0,8.35,1.69,14.22-2,1.21-2.8,4.92-6.23,7.79-11.68C375.79,202.76,374,191.71,368.26,185.81Z" style="fill:#263238"></path><path d="M346.31,214.94a4.8,4.8,0,0,1-3.14,2.18,5.36,5.36,0,0,1-2.58-.05s1.48,6,5.81,9.44a14.3,14.3,0,0,1-3.67,1.78c-3.6,1.31-10.66,1.25-12.09.06-2.14-1.8-5.73-6.66-4.78-21.32.38-6,1.75-10.18,3.5-13.19a6.27,6.27,0,0,0,3.89,4.56,6.06,6.06,0,0,0-.69,5.12c.65,2,2.3,3.55,3.88,5a.78.78,0,0,0,.32.2,2.23,2.23,0,0,0,1.29-.26c1.18-2,2.83-4.29,6.38-3.34C348.54,206.17,348.62,211.1,346.31,214.94Z" style="fill:#f28f8f"></path><rect x="330" y="196.83" width="0.87" height="16.25" transform="translate(83.44 505.27) rotate(-82.37)" style="fill:#263238"></rect><path d="M331,228.58c1.7.81,6.4.92,9.86.21l-.7-2.59a15.77,15.77,0,0,1-4.11,1.76A16.82,16.82,0,0,1,331,228.58Z" style="fill:#b16668"></path><path d="M336.46,213.63a3.37,3.37,0,0,1-2.32-4.21,3.46,3.46,0,0,1,4.29-2.29Z" style="fill:#263238"></path><path d="M374.74,171.59a10.89,10.89,0,0,0-5.8.56,6.58,6.58,0,0,0-3.78-2.15,6.63,6.63,0,0,0-3.28,12.82A11,11,0,0,0,370,193,6.63,6.63,0,1,0,382,188.39a11,11,0,0,0-7.22-16.8Z" style="fill:#263238"></path><path d="M362.68,228.81c10.88-5.94,21.45-.49,25.29,7,4.83,9.45,4.08,24.23,4.08,24.23C386.35,254.43,362.68,228.81,362.68,228.81Z" style="fill:#b16668"></path><path d="M363.53,231.68l-.85-2.87c12.28-5.84,20.25,2,26.88,18.61,3.82,9.57,2.2,22.1,3.41,36.35.87,10.27,5.56,11.75,10.15,30.11,0,0-6.67,10.48-22,14.24s-36.48.44-40.2-11.43c0,0-.13-10-.63-18.87-.43-7.6-4.66-19.31-8.37-27.95-3.5-8.17-8.13-23.36,1.4-29,2.79-1.65,5.65-2.76,9.46-4.58C351.41,239.15,364.65,235.12,363.53,231.68Z" style="fill:#B3DDFF"></path><path d="M319.22,317.79c-4.71-1.8-7.61-7.12-8.19-10.57s1-9.1,2.8-12.25S319.22,317.79,319.22,317.79Z" style="fill:#b16668"></path><path d="M313.75,295.52c1.35-8.32,3.55-21.18,6.31-34.74,2.69-13.18,4.9-15.66,11.77-18.52,16.68,9.93,8.48,32.47,8.48,32.47s-6.39,26.14-9.82,34.43c-2.23,5.39-6.62,11.44-12.49,8S312.39,303.83,313.75,295.52Z" style="fill:#f28f8f"></path></g><path d="M363.05,375.46c5-.25,8.85-3.9,20.65-8.81,21.79-9.08,38.14-16.35,44.36-27.76s10.64-62.6,9.08-76.87a18.66,18.66,0,0,0-1.06-4.73l1.53-.23-4-3.38h0c-4.07-3.32-10.7-.36-15.69,2.36-14.27,7.76-25.43,15.31-34.25,42.55-6.63,20.49-11,57.42-20.17,67.41" style="fill:#B3DDFF"></path><path d="M436.08,257.29l1.53-.23-4-3.38h0c-4.07-3.32-10.7-.36-15.69,2.36-14.27,7.76-25.43,15.31-34.25,42.55-6.63,20.49-11,57.42-20.17,67.41l-.48,9.45c5-.25,8.85-3.9,20.65-8.81,21.79-9.08,38.14-16.35,44.36-27.76s10.64-62.6,9.08-76.87A18.66,18.66,0,0,0,436.08,257.29Z" style="fill:#fff;opacity:0.25"></path><path d="M421.72,257.88c-14.26,7.77-27.67,16.26-35.22,44.18-7.48,27.64-12.31,69.59-29.69,74.26,0,0,7.86,3.12,31.94-7.06,7.67-3.24,17-9.15,23.07-12.58,12-6.72,19.23-12.22,20.38-14.28,6.33-11.36,10.64-62.61,9.08-76.87S428.87,254,421.72,257.88Z" style="fill:#B3DDFF"></path><g style="opacity:0.4"><path d="M421.72,257.88c-14.26,7.77-27.67,16.26-35.22,44.18-7.48,27.64-12.31,69.59-29.69,74.26,0,0,7.86,3.12,31.94-7.06,7.67-3.24,17-9.15,23.07-12.58,12-6.72,19.23-12.22,20.38-14.28,6.33-11.36,10.64-62.61,9.08-76.87S428.87,254,421.72,257.88Z" style="fill:#fff"></path></g></g><g id="freepik--Exclamation--inject-37"><path d="M404.51,189.79a.91.91,0,0,1-1.25.18l-3.34-2.47a.89.89,0,0,1-.19-1.24l2-2.69a.89.89,0,0,1,1.25-.18l3.34,2.47a.89.89,0,0,1,.19,1.24Zm4.22-5.71a.86.86,0,0,1-.59.34.83.83,0,0,1-.66-.16l-3.35-2.47a.83.83,0,0,1-.34-.58.81.81,0,0,1,.16-.66l8.45-11.45a.85.85,0,0,1,.59-.35.83.83,0,0,1,.66.16l3.34,2.47a.85.85,0,0,1,.35.59.87.87,0,0,1-.16.66Z" style="fill:#B3DDFF"></path><path d="M407.22,200.87a.93.93,0,0,1-1.17-.48l-1.6-3.84a.9.9,0,0,1,.48-1.17L408,194.1a.9.9,0,0,1,1.17.48l1.6,3.84a.85.85,0,0,1,0,.68.87.87,0,0,1-.47.49Zm6.55-2.73a.89.89,0,0,1-.68,0,.87.87,0,0,1-.48-.48l-1.6-3.84a.81.81,0,0,1,0-.68.84.84,0,0,1,.47-.49l13.14-5.47a.89.89,0,0,1,.68,0,.92.92,0,0,1,.49.48l1.6,3.84a.85.85,0,0,1,0,.68.87.87,0,0,1-.47.49Z" style="fill:#B3DDFF"></path><g style="opacity:0.2"><path d="M407.22,200.87a.93.93,0,0,1-1.17-.48l-1.6-3.84a.9.9,0,0,1,.48-1.17L408,194.1a.9.9,0,0,1,1.17.48l1.6,3.84a.85.85,0,0,1,0,.68.87.87,0,0,1-.47.49Zm6.55-2.73a.89.89,0,0,1-.68,0,.87.87,0,0,1-.48-.48l-1.6-3.84a.81.81,0,0,1,0-.68.84.84,0,0,1,.47-.49l13.14-5.47a.89.89,0,0,1,.68,0,.92.92,0,0,1,.49.48l1.6,3.84a.85.85,0,0,1,0,.68.87.87,0,0,1-.47.49Z"></path></g></g><g id="freepik--Idea--inject-37"><g id="freepik--Light--inject-37"><path d="M348.51,161.28a1.94,1.94,0,1,1-1.92-2A1.93,1.93,0,0,1,348.51,161.28Z" style="fill:#37474f"></path><path d="M344.25,161.36c-1.28-.76-1.26-2,0-2.68a5.1,5.1,0,0,1,4.64,0c1.27.75,1.26,2,0,2.68A5.16,5.16,0,0,1,344.25,161.36Z" style="fill:#455a64"></path><path d="M344.19,160.66c-1.32-.78-1.31-2,0-2.76a5.29,5.29,0,0,1,4.79,0c1.31.77,1.3,2,0,2.76A5.3,5.3,0,0,1,344.19,160.66Z" style="fill:#37474f"></path><path d="M344.12,159.94c-1.35-.8-1.34-2.08,0-2.85a5.45,5.45,0,0,1,4.93,0c1.35.8,1.34,2.08,0,2.85A5.45,5.45,0,0,1,344.12,159.94Z" style="fill:#455a64"></path><path d="M344.05,159.19c-1.39-.82-1.38-2.14,0-2.93a5.64,5.64,0,0,1,5.09.05c1.39.83,1.38,2.14,0,2.94A5.61,5.61,0,0,1,344.05,159.19Z" style="fill:#37474f"></path><path d="M344,158.41c-1.43-.84-1.41-2.18,0-3a5.75,5.75,0,0,1,5.19.05c1.42.85,1.41,2.19,0,3A5.7,5.7,0,0,1,344,158.41Z" style="fill:#455a64"></path><path d="M346.84,135.9a9.22,9.22,0,0,0-9.32,9.12c-.08,7.32,6,8.6,5.92,11.55a1.58,1.58,0,0,0,.92,1.31,5,5,0,0,0,4.5.05,1.58,1.58,0,0,0,.94-1.29h0c0-2.95,6.09-4.11,6.16-11.43A9.21,9.21,0,0,0,346.84,135.9Z" style="fill:#B3DDFF"></path><g style="opacity:0.6000000000000001"><path d="M346.84,135.9a9.22,9.22,0,0,0-9.32,9.12c-.08,7.32,6,8.6,5.92,11.55a1.58,1.58,0,0,0,.92,1.31,5,5,0,0,0,4.5.05,1.58,1.58,0,0,0,.94-1.29h0c0-2.95,6.09-4.11,6.16-11.43A9.21,9.21,0,0,0,346.84,135.9Z" style="fill:#fff"></path></g><path d="M344.92,157.48a1,1,0,0,1,0-1.95,3.73,3.73,0,0,1,3.38,0,1,1,0,0,1,0,2A3.73,3.73,0,0,1,344.92,157.48Z" style="fill:#B3DDFF"></path><path d="M347.85,156.31a.32.32,0,0,1-.31-.31,22.6,22.6,0,0,1,.71-5.26,12.58,12.58,0,0,1,.47-1.46,4.89,4.89,0,0,1-.79-.4,5.51,5.51,0,0,1-1.22-1,5.49,5.49,0,0,1-1.23,1,3.82,3.82,0,0,1-.8.38,13.66,13.66,0,0,1,.44,1.47,22.55,22.55,0,0,1,.59,5.28.32.32,0,0,1-.63,0,21.4,21.4,0,0,0-.57-5.11,10.91,10.91,0,0,0-.45-1.47,1.94,1.94,0,0,1-1.74-.53,1,1,0,0,1-.12-1.29.83.83,0,0,1,.86-.35c.49.1,1,.62,1.37,1.45a4.25,4.25,0,0,0,.73-.34,4.72,4.72,0,0,0,1.17-1,2.27,2.27,0,0,1-.43-1.76.81.81,0,0,1,.84-.61.83.83,0,0,1,.84.63,2.3,2.3,0,0,1-.48,1.75,4.92,4.92,0,0,0,1.16,1,3.71,3.71,0,0,0,.72.36c.42-.83.91-1.33,1.4-1.42a.83.83,0,0,1,.85.37,1,1,0,0,1-.15,1.28,2,2,0,0,1-1.75.5,12.3,12.3,0,0,0-.48,1.45,22,22,0,0,0-.68,5.1.31.31,0,0,1-.31.32Zm-5-8.49a.23.23,0,0,0-.18.11c-.15.21,0,.44.08.5a1.25,1.25,0,0,0,1,.35c-.33-.62-.65-.91-.85-1Zm6.75,1a1.23,1.23,0,0,0,1-.33.39.39,0,0,0,.09-.49c-.08-.12-.16-.13-.22-.12S350,148.23,349.63,148.84Zm-2.89-3.27a.21.21,0,0,0-.24.17,1.52,1.52,0,0,0,.22,1,1.45,1.45,0,0,0,.25-1C347,145.64,346.9,145.58,346.74,145.57Z" style="fill:#fff"></path></g><path d="M346.93,132.38a.41.41,0,0,1-.16,0,.6.6,0,0,1-.6-.6l0-3.14a.6.6,0,0,1,.6-.6.6.6,0,0,1,.6.6v3.14A.6.6,0,0,1,346.93,132.38Z" style="fill:#e0e0e0"></path><path d="M340.22,134.15a.59.59,0,0,1-.67-.28L338,131.14a.6.6,0,1,1,1-.6l1.56,2.73a.59.59,0,0,1-.22.82Z" style="fill:#e0e0e0"></path><path d="M335.3,139a.58.58,0,0,1-.46-.06l-2.71-1.58a.6.6,0,0,1,.6-1l2.72,1.58a.61.61,0,0,1,.21.83A.58.58,0,0,1,335.3,139Z" style="fill:#e0e0e0"></path><path d="M333.48,145.73l-.16,0h-3.14a.61.61,0,0,1,0-1.21h3.14a.62.62,0,0,1,.6.61A.6.6,0,0,1,333.48,145.73Z" style="fill:#e0e0e0"></path><path d="M361.17,154.11a.58.58,0,0,1-.46-.06L358,152.47a.6.6,0,0,1,.61-1l2.71,1.58a.61.61,0,0,1,.22.83A.58.58,0,0,1,361.17,154.11Z" style="fill:#e0e0e0"></path><path d="M332.38,154.11a.58.58,0,0,0,.46-.06l2.71-1.58a.6.6,0,0,0-.6-1L332.23,153a.62.62,0,0,0-.22.83A.62.62,0,0,0,332.38,154.11Z" style="fill:#e0e0e0"></path><path d="M363.42,145.85a.44.44,0,0,1-.16,0h-3.14a.6.6,0,0,1-.6-.6.59.59,0,0,1,.6-.6h3.14a.59.59,0,0,1,.6.6A.6.6,0,0,1,363.42,145.85Z" style="fill:#e0e0e0"></path><path d="M358.51,139.13a.6.6,0,0,1-.46-1.1l2.73-1.56a.6.6,0,1,1,.6,1l-2.73,1.56A.35.35,0,0,1,358.51,139.13Z" style="fill:#e0e0e0"></path><path d="M353.63,134.21a.58.58,0,0,1-.46-.07.59.59,0,0,1-.22-.82l1.58-2.71a.6.6,0,0,1,1,.6L354,133.93A.62.62,0,0,1,353.63,134.21Z" style="fill:#e0e0e0"></path></g></g></svg>