<svg xmlns="http://www.w3.org/2000/svg" viewBox="0 0 500 500"><g id="freepik--Character--inject-106"><polygon points="191.47 316.84 188.51 317.42 179.94 275.05 182.9 274.47 191.47 316.84" style="fill:#fff;stroke:#263238;stroke-linecap:round;stroke-linejoin:round"></polygon><rect x="188.33" y="316" width="56.3" height="2.01" style="fill:#fff;stroke:#263238;stroke-linecap:round;stroke-linejoin:round"></rect><rect x="260.21" y="421.55" width="86.99" height="4.25" style="fill:#fff;stroke:#263238;stroke-linecap:round;stroke-linejoin:round"></rect><path d="M360.33,290.59s-8.24,65.32-10.52,85.56,6.68,83.78,6.68,83.78h-5.23l-10.27-72H264.25l-4.91,70.71h-3.92L262,376.48v-8.93a3.48,3.48,0,0,1,3.48-3.48H339l11.51-80.66s1.3-7.51,7.83-5.22S360.33,290.59,360.33,290.59Z" style="fill:#263238;stroke:#263238;stroke-linecap:round;stroke-linejoin:round"></path><path d="M358.37,278.19a5.25,5.25,0,0,0-.52-.17c.5,1,.8,2.74.2,6-1.31,7.19-15.1,92.75-15.1,92.75h-81l-6.49,82.82h3.92l8.54-71.72H341l10.27,72h5.23s-9-63.53-6.68-83.78,12.06-84.07,12.06-84.07S364.91,280.47,358.37,278.19Z" style="fill:#fff;stroke:#263238;stroke-linecap:round;stroke-linejoin:round"></path><path d="M280.1,296.29l-40.87,2.32L221,309.15l-3.6,6.17,2.82.51,6.43-2.83s7.2-1.28,9.26-2.05S243.6,304,243.6,304l38,6.17Z" style="fill:#fff;stroke:#263238;stroke-linecap:round;stroke-linejoin:round"></path><path d="M221.15,422.6s-7.2,12.6-8.23,12.6-9.37,1.85-16-1.49-11.57-5.91-13.63-2.83a23.27,23.27,0,0,0-2.57,4.63s6.17,8.74,11.83,11.82,8.08,1.49,14,4.83,6.43,5.91,11.31,4.89,7.72-16.71,9-18.51S233,426.71,233,426.71Z" style="fill:#fff;stroke:#263238;stroke-linecap:round;stroke-linejoin:round"></path><path d="M214.16,433.9c-.59.8-1,1.3-1.24,1.3-1,0-9.37,1.85-16-1.49s-11.57-5.91-13.63-2.83a23.27,23.27,0,0,0-2.57,4.63s6.17,8.74,11.83,11.82,8.08,1.49,14,4.83,6.43,5.91,11.31,4.89c4.33-.92,7-13.31,8.5-17.39C221.92,438.52,217.16,435.81,214.16,433.9Z" style="fill:#263238;stroke:#263238;stroke-linecap:round;stroke-linejoin:round"></path><path d="M217.8,457.05a3.09,3.09,0,0,0,.43-.14.84.84,0,0,0,.14-.06l.28-.14.16-.1.25-.17.16-.13.24-.21.15-.15a3.07,3.07,0,0,0,.25-.26l.14-.16c.08-.1.17-.2.25-.31l.12-.15.29-.42.07-.1c.2-.3.39-.63.58-1-5,0-8.4-3.15-13.79-5-6.68-2.31-7.06-.45-11.94-3.8s-5.4-5.39-5.4-5.39l4.33-6.84c-5.47-2.7-9.46-4.36-11.27-1.65a23.27,23.27,0,0,0-2.57,4.63s6.17,8.74,11.83,11.82,8.08,1.49,14,4.83S212.92,458.07,217.8,457.05Z" style="fill:#fff;stroke:#263238;stroke-linecap:round;stroke-linejoin:round"></path><path d="M228.86,358.33,206,415.4l27.25,15.43s29-65.81,29.3-67.1,5.4-2.57,5.4-2.57L288.75,364s-31.36-13.88-40.61-15.94S232.71,347.54,228.86,358.33Z" style="fill:#B3DDFF;stroke:#263238;stroke-linecap:round;stroke-linejoin:round"></path><path d="M252.59,402.72l12.86,12.08s-4.37,10.8-9.51,17.74-5.66,11-3.35,12.59,6.94,1.29,10-.77,20.56-19.28,22.62-22.36a5.17,5.17,0,0,0-1-6.68c-.77-.52-17.73-20.83-17.73-20.83Z" style="fill:#fff;stroke:#263238;stroke-linecap:round;stroke-linejoin:round"></path><path d="M285.24,422a5.17,5.17,0,0,0-1-6.68c-.36-.25-4.35-4.92-8.46-9.78-3.76,4.55-10.55,7.09-12.05,7.62l1.75,1.64s-4.37,10.8-9.51,17.74-5.66,11-3.35,12.59,6.94,1.29,10-.77S283.18,425.08,285.24,422Z" style="fill:#263238;stroke:#263238;stroke-linecap:round;stroke-linejoin:round"></path><path d="M284.54,415.6a9,9,0,0,1-1.87,4.86c-3.08,3.85-20.31,19.79-20.31,19.79l-8-5.52c-3.68,5.62-3.87,9-1.82,10.4,2.32,1.55,6.94,1.29,10-.77s20.56-19.28,22.62-22.36A5.18,5.18,0,0,0,284.54,415.6Z" style="fill:#fff;stroke:#263238;stroke-linecap:round;stroke-linejoin:round"></path><path d="M277.27,414.29a2.7,2.7,0,1,1-2.7-2.57A2.64,2.64,0,0,1,277.27,414.29Z" style="fill:#fff"></path><path d="M285.5,321.49l-1.29,4.37s-38.81.51-55.78,5.14-21.59,7.2-20.31,16.71S235.63,412,235.63,412a105.89,105.89,0,0,0,15.42-5.65A97.43,97.43,0,0,0,267.76,396l-19.54-37.28s22.37,4.63,47.3,6.94,35.48-.26,39.59-7.71-2.83-37.27-2.83-37.27l-46.52-1.55Z" style="fill:#B3DDFF;stroke:#263238;stroke-linecap:round;stroke-linejoin:round"></path><path d="M231,346.45a15.23,15.23,0,0,1-2.29-2.86" style="fill:none;stroke:#263238;stroke-linecap:round;stroke-linejoin:round"></path><path d="M248.22,358.76a114.21,114.21,0,0,1-14.82-10.07" style="fill:none;stroke:#263238;stroke-linecap:round;stroke-linejoin:round"></path><path d="M251.1,380.23l2.06,1" style="fill:none;stroke:#263238;stroke-linecap:round;stroke-linejoin:round"></path><path d="M215.11,349.92a108.61,108.61,0,0,0,32.42,28.35" style="fill:none;stroke:#263238;stroke-linecap:round;stroke-linejoin:round"></path><path d="M322.81,338.53A29,29,0,0,1,325.6,341" style="fill:none;stroke:#263238;stroke-linecap:round;stroke-linejoin:round"></path><path d="M286.78,326.37s18.84,1.46,32.14,9.48" style="fill:none;stroke:#263238;stroke-linecap:round;stroke-linejoin:round"></path><path d="M312.49,330.74s12.34.26,17.22,5.4" style="fill:none;stroke:#263238;stroke-linecap:round;stroke-linejoin:round"></path><path d="M289.1,244.37s-8.74,26-10,33.93-.51,42.67-.51,42.67,20.56,6.17,32.13,4.89,26-3.6,26-3.6-2.57-46-4.88-61.95-7.71-25.2-12.85-29.05a80.38,80.38,0,0,0-10.8-6.69Z" style="fill:#263238;stroke:#263238;stroke-linecap:round;stroke-linejoin:round"></path><path d="M243.85,204.27a27.83,27.83,0,0,0,3.35,9.25c2.57,4.11,6.17,5.91,5.14,10s-1,6.94,2,7.19l3.09.26s6.17,10.54,10.8,10.54S286,229.72,286,229.72s-6.94-32.65-6.94-33.68-36.76,3.86-36.76,3.86Z" style="fill:#fff;stroke:#263238;stroke-linecap:round;stroke-linejoin:round"></path><path d="M259.15,217.48c.49,1,.32,2.13-.39,2.47s-1.67-.22-2.16-1.25-.32-2.13.39-2.46S258.66,216.46,259.15,217.48Z" style="fill:#263238"></path><path d="M252.85,214.55s-.26-3.6,5.14-2.83" style="fill:none;stroke:#263238;stroke-linecap:round;stroke-linejoin:round"></path><path d="M260.36,231.82c.16.57,6.28.23,5.34-5.19" style="fill:none;stroke:#263238;stroke-linecap:round;stroke-linejoin:round"></path><path d="M296,192.18c-.85-10.41-13.81-6.42-19.88-3.27l-.17-.32-24.42,6.94a4.84,4.84,0,0,0,2.31,5.14,35.62,35.62,0,0,0,17.49,6.85c1.82,10.88,4.36,27.14,4.36,33.25,0,9.51-3.6,13.11-3.6,13.11s16.45-5.14,26-14.14a86.14,86.14,0,0,0,14.4-17.48S297.07,204.78,296,192.18Z" style="fill:#B3DDFF;stroke:#263238;stroke-linecap:round;stroke-linejoin:round"></path><line x1="271.37" y1="207.52" x2="270.64" y2="204.12" style="fill:none;stroke:#263238;stroke-linecap:round;stroke-linejoin:round"></line><path d="M283.57,231.18c.21,1.17.38,2.26.5,3.21" style="fill:none;stroke:#263238;stroke-linecap:round;stroke-linejoin:round"></path><path d="M277.21,204.12s3.63,13.41,5.68,23.48" style="fill:none;stroke:#263238;stroke-linecap:round;stroke-linejoin:round"></path><line x1="289.35" y1="207.49" x2="294.34" y2="220.68" style="fill:none;stroke:#263238;stroke-linecap:round;stroke-linejoin:round"></line><line x1="287.21" y1="201.83" x2="288.5" y2="205.24" style="fill:none;stroke:#263238;stroke-linecap:round;stroke-linejoin:round"></line><line x1="293.49" y1="202.12" x2="295.77" y2="207.83" style="fill:none;stroke:#263238;stroke-linecap:round;stroke-linejoin:round"></line><path d="M241.33,203.87S224.13,213,229.86,213s34.41-11.85,35.55-11.85S246.3,203.1,241.33,203.87Z" style="fill:#757575;stroke:#263238;stroke-linecap:round;stroke-linejoin:round"></path><path d="M241.33,203.87s-10.29,3.26-5.7-7.83,35.84-27.25,48.84-27.25,22.61,19.4,20.7,25.52-6.12,6.88-8,6.88S241.33,203.87,241.33,203.87Z" style="fill:#757575;stroke:#263238;stroke-linecap:round;stroke-linejoin:round"></path><path d="M246.3,200.43s18.73.38,34.79-1.91,22.55-4.59,22.55-4.59" style="fill:none;stroke:#263238;stroke-linecap:round;stroke-linejoin:round"></path><line x1="301.35" y1="198.9" x2="276.12" y2="199.28" style="fill:none;stroke:#263238;stroke-linecap:round;stroke-linejoin:round"></line><path d="M285.5,299.89,282.16,303s-41.65-5.4-44.48-4.63-12.85,3.6-12.85,3.6l-8,.51-6.42,10.8h2.05l4.63-6.43H220l-4.89,5.66L213,315.57l7.19.26,1.05-.89,4.1-3.48-1.29,3.86h1.54l3.6-6.17,4.89-2.57,5.14-3.6s52.44,18.25,53.72,19,4.12,2.83,6.43.77,8.48-19.28,8.48-19.28Z" style="fill:#fff;stroke:#263238;stroke-linecap:round;stroke-linejoin:round"></path><path d="M216.22,315.22a35.91,35.91,0,0,0,7-7.31s.35-2.71,2.71-3.14" style="fill:none;stroke:#263238;stroke-linecap:round;stroke-linejoin:round"></path><polyline points="225.35 311.46 226.51 306.99 227.79 305.96" style="fill:none;stroke:#263238;stroke-linecap:round;stroke-linejoin:round"></polyline><path d="M220,306.83a14.24,14.24,0,0,1,2.44-2.94c.87-.52,1.4-.78,1.4-.78" style="fill:none;stroke:#263238;stroke-linecap:round;stroke-linejoin:round"></path><path d="M263.5,311.46C277.42,316.34,292.28,321.6,293,322c1.29.77,4.12,2.83,6.43.77s8.48-19.28,8.48-19.28l-22.36-3.6L282.16,303s-7.66-1-16.62-2.07Z" style="fill:#757575;stroke:#263238;stroke-linecap:round;stroke-linejoin:round"></path><path d="M293,260.82,281.9,298.09s1,5.15,11.31,8a64,64,0,0,0,17.48,2.57l8.23-46.27" style="fill:#263238;stroke:#263238;stroke-linecap:round;stroke-linejoin:round"></path><line x1="292.26" y1="264.18" x2="282.23" y2="295.27" style="fill:none;stroke:#707070;stroke-linecap:round;stroke-linejoin:round"></line><line x1="316.75" y1="274.14" x2="311.82" y2="305.8" style="fill:none;stroke:#707070;stroke-linecap:round;stroke-linejoin:round"></line><line x1="317.83" y1="267.18" x2="317.29" y2="270.66" style="fill:none;stroke:#707070;stroke-linecap:round;stroke-linejoin:round"></line></g><g id="freepik--Table--inject-106"><rect x="191.5" y="320.5" width="9" height="133.8" style="fill:#263238;stroke:#263238;stroke-linecap:round;stroke-linejoin:round"></rect><rect x="127.89" y="318.14" width="133.96" height="5.53" style="fill:#757575;stroke:#263238;stroke-linecap:round;stroke-linejoin:round"></rect><path d="M244.23,459.77H147.79a5.54,5.54,0,0,1,5.53-5.53H238.7a5.54,5.54,0,0,1,5.53,5.53Z" style="fill:#757575;stroke:#263238;stroke-linecap:round;stroke-linejoin:round"></path></g><g id="freepik--Coffee--inject-106"><polygon points="166.61 319.12 149.01 319.12 146.37 286.2 169.25 286.2 166.61 319.12" style="fill:#B3DDFF;stroke:#263238;stroke-linecap:round;stroke-linejoin:round"></polygon><rect x="144.77" y="282.95" width="25.42" height="7.5" style="fill:#fff;stroke:#263238;stroke-linecap:round;stroke-linejoin:round"></rect><polygon points="167.34 309.99 168.31 297.94 147.31 297.94 148.28 309.99 167.34 309.99" style="fill:#fff;stroke:#263238;stroke-linecap:round;stroke-linejoin:round"></polygon></g></svg>