<svg xmlns="http://www.w3.org/2000/svg" viewBox="0 0 500 500"><g id="freepik--Character--inject-64"><g id="freepik--character--inject-64"><g id="freepik--Arm--inject-64"><path d="M158.62,216.28a18.55,18.55,0,0,1,1.64,4.58c.74,3.94-.68,7.91-1.47,11.83-.26,1.33-.35,2.55.6,3.59a.86.86,0,0,0,.74.35c.24-.06.4-.3.53-.51A24,24,0,0,0,162.9,231a26,26,0,0,1-.17,5.07,9.25,9.25,0,0,0,0,4c.42,1.28,1.86,2.31,3,1.68a3.5,3.5,0,0,0,1.33-2.18l.93-3a39.12,39.12,0,0,0,1.13-4.25,20,20,0,0,0-3.23-15,7.21,7.21,0,0,0-3-2.69,4.29,4.29,0,0,0-3.62.21C158.5,215.26,158.25,215.53,158.62,216.28Z" style="fill:#f28f8f"></path><path d="M171.42,223.16c-.43-5.25-.61-10.75-1.59-15.72s-3.06-24.08-4-29.39c-1.23-7-2.9-11.38-3.92-15.71-1.15-4.84-2.11-11.46-4.14-22s-4.52-16.44-9.73-19.84a23.19,23.19,0,0,0-13-4c-1.18,3.24-.09,14.58-.09,14.58s5,24.18,5.54,27.15,5.89,16.56,9.47,27.62c2.05,6.35,5.15,15.28,5.15,15.28.94,3.95,1.27,5.21.48,8.34-.33,1.32-.86,2.58-1.19,3.9a23.28,23.28,0,0,0-.66,4.39c-.05,1,0,2-.09,3-.09,1.85-.39,3.69-.61,5.53-.15,1.35.63,2.18,2,1.76a4.13,4.13,0,0,0,2.25-2.08,17.37,17.37,0,0,0,1.19-4.23c.16-.69,1-4.84,2.31-3.71,1.12.95,2.31,4.19,3.78,6.39a9.13,9.13,0,0,1,2,7c-.25,3.35-1.85,7.83-1.31,10.66s2.12,3.44,2.69,2.27,2.3-8,2.88-10.37A33.22,33.22,0,0,0,171.42,223.16Z" style="fill:#ffa8a7"></path><path d="M158.45,219.44c6.09,2.68,13.68,4.14,17,17.14s7.25,60.77,7.25,60.77a16.54,16.54,0,0,1-13.29,6.26l.54,13.63s-8.9,4.28-22.16.93c-6.43-1.62-10.39-7.5-10.39-7.5s1.51-38.57,2.56-53.3S142.35,212.25,158.45,219.44Z" style="fill:#455a64"></path><path d="M167.26,251.15s1.62,39,2.15,52.46a18,18,0,0,0,4.39-.54Z" style="fill:#37474f"></path><path d="M153.63,220.73c-.09,1.85-.39,3.69-.61,5.53-.15,1.35.63,2.18,2,1.76a4.13,4.13,0,0,0,2.25-2.08,17.37,17.37,0,0,0,1.19-4.23c.12-.53.63-3.08,1.46-3.74l-6.19-.23C153.67,218.73,153.68,219.73,153.63,220.73Zm6.28-2.76.85,0A.59.59,0,0,0,159.91,218Z" style="fill:#ffa8a7"></path><path d="M140.64,115.79c9.87,4.06,13,7.33,14.91,13.31s4.92,21.1,5.91,27.67,3.47,12.48,4.85,21.07S169.05,199,169.05,199s-1.79,2.3-7.19,2.62-8.21-1.63-8.21-1.63-5.74-17.15-7.91-22.88-7.14-20-7.14-20Z" style="fill:#e6e6e6"></path></g><g id="freepik--Bottom--inject-64"><polygon points="56.2 354.45 62.79 356.47 63.78 351.72 58.38 352.23 56.2 354.45"></polygon><path d="M58,341.17s-2.76,3.17-3.61,4.18,1.11,7.71,1.8,9.1l2.18-2.22c.22,1.69-.14,3.35-.49,5.94-.29,2.15-1.37,5.82-.49,9.57,1.31,5.57,5.66,11.23,11.09,15.73s9.67,5.58,12.19,5.6,4.11-1,4.8-2.74S58,341.17,58,341.17Z" style="fill:#263238"></path><path d="M81.68,341.31l1.56-1.88c1.05.76-1,3.65-1.37,7.26A62.79,62.79,0,0,0,82,362.78c1.69,9.51,4.24,16.64,5,20.9,1,5.71-8.75,6.08-17.46-1.44-4.33-3.74-10.61-12.19-10.81-16.6s1.62-9.64,1.3-13-2.68-8.28-2-11.5c.38-1.77,3-4.54,5.38-6.83,2.15-2.09,4-6.62,5.07-5.31l-.8,1.56c-.25,1.45.7,4.82,3.87,8.24C73.11,340.54,78.42,344.88,81.68,341.31Z" style="fill:#455a64"></path><path d="M74.38,341.18c1.86,1.19,4.17,2.05,6.11,1.05,0,0,.05,0,.07,0a5.59,5.59,0,0,0-1.68,4.62c.16,3.16.1,24.52.1,24.52s-1-18.46-1.27-22c-.34-5.18-.92-6.2-3.34-8.2Z" style="opacity:0.15"></path><path d="M87,383.68c-.62-3.6-2.54-9.25-4.14-16.65-.22,2.29.27,4.57,0,5.19-.61,1.54-5.71.41-8.46-.74s-2.81-6.41-3.9-12-6.71-4.38-11-1.11a34.46,34.46,0,0,0-.75,7.22c.2,4.41,6.48,12.86,10.81,16.6C78.23,389.76,88,389.39,87,383.68Z" style="fill:#37474f"></path><path d="M73.91,346.49a.7.7,0,1,1,0-1A.7.7,0,0,1,73.91,346.49Z" style="opacity:0.15"></path><path d="M74.31,351.53a.7.7,0,1,1,0-1A.7.7,0,0,1,74.31,351.53Z" style="opacity:0.15"></path><path d="M74.71,356.57a.7.7,0,0,1-1-1,.71.71,0,0,1,1,0A.7.7,0,0,1,74.71,356.57Z" style="opacity:0.15"></path><path d="M75.12,361.61a.71.71,0,0,1-1,0,.7.7,0,0,1,0-1,.7.7,0,0,1,1,1Z" style="opacity:0.15"></path><path d="M75.52,366.66a.71.71,0,0,1-1,0,.7.7,0,0,1,0-1,.71.71,0,0,1,1,1Z" style="opacity:0.15"></path><path d="M73.22,346.21a.22.22,0,0,1-.09-.17.28.28,0,0,1,.24-.32c.2,0,4.87-.54,8.22,2.36h0a.28.28,0,1,1-.37.43c-3.16-2.74-7.73-2.23-7.78-2.23A.22.22,0,0,1,73.22,346.21Z" style="fill:#263238"></path><path d="M73.63,351.25a.26.26,0,0,1-.09-.18.27.27,0,0,1,.24-.31c.2,0,4.87-.55,8.22,2.35h0a.28.28,0,1,1-.37.43c-3.16-2.74-7.73-2.23-7.78-2.22A.28.28,0,0,1,73.63,351.25Z" style="fill:#263238"></path><path d="M74,356.3a.31.31,0,0,1-.09-.18.27.27,0,0,1,.24-.31c.2,0,4.87-.55,8.22,2.35h0a.28.28,0,1,1-.37.43c-3.16-2.74-7.73-2.23-7.78-2.22A.29.29,0,0,1,74,356.3Z" style="fill:#263238"></path><path d="M74.42,361.34a.31.31,0,0,1-.09-.18.28.28,0,0,1,.24-.31c.2,0,4.87-.55,8.22,2.35h0a.29.29,0,0,1,0,.4.28.28,0,0,1-.4,0c-3.16-2.74-7.73-2.23-7.78-2.22A.29.29,0,0,1,74.42,361.34Z" style="fill:#263238"></path><path d="M74.82,366.38a.31.31,0,0,1-.09-.18.27.27,0,0,1,.25-.31c.19,0,4.86-.55,8.21,2.35h0a.28.28,0,0,1,0,.39.28.28,0,0,1-.4,0c-3.15-2.73-7.73-2.23-7.78-2.22A.29.29,0,0,1,74.82,366.38Z" style="fill:#263238"></path><path d="M148.76,195.49s.72,12.49.1,38.46c-.52,21.73,1.88,33-6.84,46.84-7.79,12.35-56.41,59.53-59.92,63.81,0,0-15.39,1.4-16.14-14.37,0,0,14.33-25.59,21.09-40.1s16-21.47,16-21.47L90.42,205.4Z" style="fill:#263238"></path><path d="M95.79,204.49l-5.34.9,0,.23,12.17,61,.41,1.53h0l-.1,0,.1.47s-6.57,5-12.69,15.24C92.5,289.38,96.74,299,96.74,299c.38,1.49-3.92,7.59-1.47,25.95.18,1.32.5,3.24.87,5.31C107.08,319.2,122,304.15,132,293c.49-2.87,2-12.32,1.12-19.54S129,230.82,129,230.82a29.88,29.88,0,0,0,8.08-7.43,19.71,19.71,0,0,0,3.77-8.18A122.07,122.07,0,0,0,145,200.72Z"></path><polygon points="114.98 406.31 121.53 404.16 119.61 399.71 115.48 403.23 114.98 406.31"></polygon><path d="M108.82,394.39s-.44,4.19-.55,5.51,5.34,5.67,6.71,6.41l.5-3.08c1.16,1.26,1.81,2.82,3,5.14,1,1.93,2.23,5.56,5.11,8.11,4.27,3.8,11.09,5.93,18.11,6.49s11.13-1,13.2-2.44,2.77-3.2,2.35-5S108.82,394.39,108.82,394.39Z" style="fill:#263238"></path><path d="M128.26,380.89l.19-2.43c1.3,0,1.3,3.55,3.06,6.72,2.37,4.27,5.88,9.64,9.36,13.09,6.85,6.81,13,11.17,16.1,14.23,4.1,4.1-3.66,10-15.11,8.87-5.69-.57-15.69-3.87-18.39-7.36s-4.23-8.82-6.4-11.36-7-5.22-8.25-8.26c-.71-1.66-.13-5.45.47-8.67.56-3-.57-7.7,1.09-7.26l.25,1.73c.63,1.33,3.33,3.54,7.9,4.52C120.81,385.19,127.64,385.69,128.26,380.89Z" style="fill:#455a64"></path><path d="M122.21,385c2.2-.1,4.6-.72,5.6-2.66l0-.06a5.56,5.56,0,0,0,1.28,4.74c2,2.49,14.2,20,14.2,20s-11.47-14.49-13.68-17.22c-3.25-4-4.32-4.54-7.45-4.79Z" style="opacity:0.15"></path><path d="M157,412.5c-2.58-2.59-7.4-6.1-13-11.23,1.15,2,2.86,3.58,3,4.23.38,1.61-4.44,3.62-7.35,4.26s-6-3.62-10.07-7.53-8,.28-9.66,5.44a34.48,34.48,0,0,0,3.54,6.34c2.7,3.49,12.7,6.79,18.39,7.36C153.31,422.5,161.07,416.6,157,412.5Z" style="fill:#37474f"></path><path d="M124.89,389.6a.7.7,0,1,1-1.39-.21.69.69,0,0,1,.8-.59A.71.71,0,0,1,124.89,389.6Z" style="opacity:0.15"></path><path d="M128.11,393.49a.69.69,0,0,1-.8.59.7.7,0,1,1,.8-.59Z" style="opacity:0.15"></path><path d="M131.34,397.39a.7.7,0,0,1-1.39-.22.72.72,0,0,1,.81-.59A.7.7,0,0,1,131.34,397.39Z" style="opacity:0.15"></path><path d="M134.57,401.28a.7.7,0,1,1-1.39-.22.7.7,0,0,1,1.39.22Z" style="opacity:0.15"></path><path d="M137.8,405.17a.7.7,0,1,1-.59-.8A.7.7,0,0,1,137.8,405.17Z" style="opacity:0.15"></path><path d="M124.16,389.78a.27.27,0,0,1-.18-.1.29.29,0,0,1,0-.4c.15-.13,3.67-3.24,8.08-2.8h0a.28.28,0,0,1,.25.31.29.29,0,0,1-.31.26c-4.16-.42-7.61,2.62-7.64,2.65A.32.32,0,0,1,124.16,389.78Z" style="fill:#263238"></path><path d="M127.39,393.65a.23.23,0,0,1-.18-.09.29.29,0,0,1,0-.4c.15-.13,3.67-3.24,8.08-2.8h0a.28.28,0,0,1,.25.31.29.29,0,0,1-.31.26c-4.15-.42-7.61,2.62-7.64,2.65A.26.26,0,0,1,127.39,393.65Z" style="fill:#263238"></path><path d="M130.61,397.56a.28.28,0,0,1-.17-.09.27.27,0,0,1,0-.4c.15-.13,3.66-3.25,8.07-2.8h0a.28.28,0,0,1-.06.56c-4.16-.42-7.61,2.63-7.64,2.66A.29.29,0,0,1,130.61,397.56Z" style="fill:#263238"></path><path d="M133.84,401.45a.28.28,0,0,1-.17-.09.28.28,0,0,1,0-.4c.14-.13,3.66-3.25,8.07-2.8h0a.28.28,0,0,1,.24.31.27.27,0,0,1-.31.25c-4.15-.42-7.6,2.63-7.64,2.66A.26.26,0,0,1,133.84,401.45Z" style="fill:#263238"></path><path d="M137.07,405.34a.23.23,0,0,1-.18-.09.29.29,0,0,1,0-.4c.14-.13,3.66-3.24,8.07-2.8h0a.28.28,0,0,1,.24.31.28.28,0,0,1-.31.26c-4.15-.42-7.6,2.62-7.64,2.65A.26.26,0,0,1,137.07,405.34Z" style="fill:#263238"></path><path d="M78.75,191.46s-.35,16-.28,23.18c.14,14.74,3,20.81,6.64,33.21,3,10.06,15.07,47,16,50.57-1.28,7.8-2.63,14.7,0,31.73,3.77,24.58,8,53.77,8,53.77,2.25,3.12,17.59,4.25,22.05-.27,0,0,1.32-78.64.84-94.71-.41-14-6.93-59.77-6.93-59.77s20.9-8.79,22.7-33.38Z" style="fill:#263238"></path></g><g id="freepik--Top--inject-64"><g id="freepik--top--inject-64"><path d="M104.8,108.26s22.9,1.55,35.84,7.53c2.89,1.33,11.49,12.6,10.47,28.13-2.58,39.12-1.55,60.88-1.55,60.88-.71,2-8.13,12.8-28.61,14.74-21.1,2-33-.18-42.92-8.89.07-16.61.36-37.82.54-52.07.14-11,.31-18,1.59-25.78.85-5.17,3-12.9,6.55-14.89a101.4,101.4,0,0,1,12.42-6A16.39,16.39,0,0,0,104.8,108.26Z" style="fill:#fafafa"></path><path d="M105.18,109.29c3.23.25,23.4,2,35,7.4,2.64,1.22,10.88,12.07,9.88,27.16-2.41,36.65-1.65,58.36-1.55,60.78-.41.89-2.25,3.75-6.47,6.74-3.83,2.72-10.62,6.17-21.23,7.18-4.86.46-9.06.69-12.84.69-12.92,0-21.63-2.71-29-9,.06-14.71.3-33.17.47-46.68l.06-4.93c.14-10.82.32-18,1.58-25.63,1-5.9,3.23-12.58,6.06-14.18a100,100,0,0,1,12.31-6,17.73,17.73,0,0,0,5.67-3.54m-.38-1a16.39,16.39,0,0,1-5.67,3.65,101.4,101.4,0,0,0-12.42,6c-3.51,2-5.7,9.72-6.55,14.89-1.28,7.75-1.45,14.83-1.59,25.78-.18,14.25-.47,35.46-.54,52.07,7.67,6.75,16.56,9.58,30,9.58,3.9,0,8.18-.24,12.93-.69,20.48-1.94,27.9-12.75,28.61-14.74,0,0-1-21.76,1.55-60.88,1-15.53-7.58-26.8-10.47-28.13-12.94-6-35.84-7.53-35.84-7.53Z" style="fill:#e0e0e0"></path><g id="freepik--Head--inject-64"><path d="M105.25,64.22c-6.21,7-4.2,15.26-2,23.54,2.6,9.43,2.76,12.48,8.18,14.84-1.22-29.61,8.24,6.67,32-16.35,4.29-4.16,4.56-17-.64-22.88C135.44,55.11,117.39,51,105.25,64.22Z" style="fill:#37474f"></path><path d="M104,97.06c4.32,1.8,6.28-1.17,6.28-1.17l-3.82,11S104,113.71,109.56,117c15.38,9.24,11.9,13.13,17.1,17.62,1.76-2.21,1.53-12.11,1.81-14.72l3.37-10.59a32.76,32.76,0,0,0,5.26-.24c4.12-.58,6.45-3.51,7.75-7.93,2.07-7.12,1.76-17.86-.79-31.77C139.51,65.78,124.43,65,114.68,71c.35,8.18-1.87,9.51-1.87,13,0,3.95-.27,4.86-1.48,5.39s-2.29-1.32-2.78-2.48c-.82-2-1.52-3.22-3.45-3.7s-4.09-.17-5.86,2.43C96.5,89.68,100.82,95.76,104,97.06Z" style="fill:#ffa8a7"></path><path d="M131.84,109.35c-4.87-.24-11.71-2.8-14.47-5.38s-4.56-7.6-4.56-7.6a15.72,15.72,0,0,0,3.52,9.34c3.6,4.38,14.49,6.85,14.49,6.85Z" style="fill:#f28f8f"></path><path d="M129.25,73.31c-.13,0-.29.08-.3.21s.13.17.23.23a4,4,0,0,1,.48.32,1.3,1.3,0,0,1,.39.42,1.85,1.85,0,0,1,.12.4,5.19,5.19,0,0,1,.05.68c0,.19.16.32.34.16a.57.57,0,0,0,.15-.22,1.71,1.71,0,0,0,.13-.8,1.69,1.69,0,0,0-.12-.44A1.62,1.62,0,0,0,129.25,73.31Zm7.44.3a.43.43,0,0,0-.54-.51,1.87,1.87,0,0,0-1,1.23,2,2,0,0,0,.4,2.15c.09.08.22.15.31.09s0-1,.07-1.21a2.11,2.11,0,0,1,.29-1C136.34,74.13,136.61,73.91,136.69,73.61Zm-4.05-1.75a.13.13,0,0,0-.2.07.64.64,0,0,0,.11.53,4.24,4.24,0,0,1,.23.59A4.49,4.49,0,0,1,133,74.3a6.74,6.74,0,0,1-.08,1.19c-.06.37-.17.73-.23,1.1,0,0,0,.14.08.1a2.79,2.79,0,0,0,.8-2.25,4.82,4.82,0,0,0-.21-1.36A2.3,2.3,0,0,0,132.64,71.86Z" style="fill:#f28f8f"></path><path d="M123.87,76.75l4.4-1.69a2.47,2.47,0,0,1-1.4,3.12A2.3,2.3,0,0,1,123.87,76.75Z" style="fill:#37474f"></path><path d="M137.85,74.39l4.26,2.1A2.28,2.28,0,0,1,139,77.63,2.49,2.49,0,0,1,137.85,74.39Z" style="fill:#37474f"></path><path d="M128.27,81.29c-.41-1-1,.41-2.2.91s-2.51-.12-2.1.87a2.37,2.37,0,0,0,4.3-1.78Z" style="fill:#263238"></path><path d="M142.14,82.27c.25-1-1-.25-2.31-.54s-2-1.56-2.22-.52a2.36,2.36,0,0,0,4.53,1.06Z" style="fill:#263238"></path><path d="M131.68,78.9l1.78,13,6.48-1.5C138.51,86.63,134.49,80.62,131.68,78.9Z" style="fill:#f28f8f"></path><path d="M128.71,94.93a2.28,2.28,0,0,0-.74.74c-.57.94.24,1.42,1.1,1.5a7.66,7.66,0,0,1,2.72.78,2.11,2.11,0,0,0,1.25.4,1.09,1.09,0,0,0,.72-.43,1.31,1.31,0,0,0,.14-.8,3.25,3.25,0,0,0-2-2.52A3.63,3.63,0,0,0,128.71,94.93Z" style="fill:#b16668"></path><path d="M131.79,98a6,6,0,0,0,.62.31,4.08,4.08,0,0,0-3.94-3.14,2,2,0,0,0-.5.55c-.57.94.24,1.42,1.1,1.5A7.66,7.66,0,0,1,131.79,98Z" style="fill:#f28f8f"></path></g></g><path d="M124.86,141.09c-4.69-3.26-13.47-10.45-20.75-31.79l-2.88,2s4.62,21.93,22.93,33.07Z" style="fill:#B3DDFF"></path><path d="M129.34,140.67c1.35-1.84,4.46-14.37,1.35-27.83l2.55,2.45c2.62,13.15-.22,25.39-2.67,29.06Z" style="fill:#B3DDFF"></path><path d="M129.13,147.47s5.51,38.72,5.73,42.52-5.75,13-6.56,13.51S122.14,195,122.07,192s3.87-44.54,3.87-44.54Z" style="fill:#B3DDFF"></path><path d="M129.34,140.67a8.31,8.31,0,0,0-4.48.42c-.84,1.51-1.14,3.85-.48,4.95s1.9,2.8,3.42,2.73,2.8-2,3-3.85C131,142.92,129.34,140.67,129.34,140.67Z" style="fill:#B3DDFF"></path><path d="M129.34,140.67a8.31,8.31,0,0,0-4.48.42c-.84,1.51-1.14,3.85-.48,4.95s1.9,2.8,3.42,2.73,2.8-2,3-3.85C131,142.92,129.34,140.67,129.34,140.67Z" style="fill:#fff;opacity:0.2"></path><path d="M126.59,134.66c-2.69-3.07-3.63-12.3-5.62-13.85s-13.54-8.61-14.63-13.68l1.28-3.69c-1.38-.63-3.24,3.78-8.49,8.47,0,0-.65,5.36,3.37,11.45,4.73,7.19,8.88,9.6,8.88,9.6s5.78-7.46,6.73-7.75S123.37,133.56,126.59,134.66Z" style="fill:#f0f0f0"></path><path d="M126.59,134.66c1.44-2.52,1.21-12.88,1.62-14.25.86-2.88,3.39-10.33,3.39-10.33a6.59,6.59,0,0,1,1.14,1.12c4.78,6.18,4.63,15.1,3.32,17.85-1.38-2.93-4.66-6.71-5.25-6S129.06,133.43,126.59,134.66Z" style="fill:#f0f0f0"></path><g id="freepik--Briefcase--inject-64"><path d="M108.73,261.2l2.34,47.64c.11,2.31-1.45,3.72-3.39,5L102.81,317a4.84,4.84,0,0,1-3.88,1,10.66,10.66,0,0,1-2.73-1,.18.18,0,0,1-.1,0l-.28-.15-52.66-27a12.08,12.08,0,0,1-6.56-10.17l-2.13-43.38a3.44,3.44,0,0,1,1.43-2.77l8.3-5.35a3.4,3.4,0,0,1,3.1-.15L107,258.59a3.2,3.2,0,0,1,1.16,1.1A3.24,3.24,0,0,1,108.73,261.2Z" style="fill:#37474f"></path><path d="M108.73,261.2l2.34,47.64c.11,2.31-1.45,3.72-3.39,5L102.81,317a4.84,4.84,0,0,1-3.88,1,10.66,10.66,0,0,1-2.73-1v0c2,.84,3.57-.28,3.45-2.64l-2.2-44.88a4.81,4.81,0,0,0-.81-2.29l11.56-7.45A3.24,3.24,0,0,1,108.73,261.2Z" style="fill:#263238"></path><path d="M97.45,269.43a5.23,5.23,0,0,0-2.55-4l-56.46-29c-2.23-1.15-4,0-3.83,2.47l2,40.61a12.1,12.1,0,0,0,6.56,10.18l52.66,27c2.23,1.15,4,0,3.83-2.47Z" style="fill:#455a64"></path><path d="M41.51,229.79l59.86,31.07a5.48,5.48,0,0,1,2.93,4.57l2.41,49-.86.56-2.44-49.55a4.59,4.59,0,0,0-2.45-3.82l-60.31-31.3Z" style="fill:#B3DDFF"></path><path d="M103.44,262.76a5.44,5.44,0,0,1,.86,2.67l2.41,49-.86.56-2.44-49.55a4.5,4.5,0,0,0-.72-2.23Z" style="opacity:0.2"></path><path d="M102.69,263.24a4.5,4.5,0,0,0-1.73-1.59l-60.31-31.3.86-.56,59.86,31.07a5.57,5.57,0,0,1,2.07,1.9" style="opacity:0.2"></path><path d="M62.48,234.87l.36,7.37L60,244.05l-.48-9.8c0-.5.31-.72.76-.49Z" style="fill:#B3DDFF"></path><path d="M62.48,234.87l.36,7.37L60,244.05l-.48-9.8c0-.5.31-.72.76-.49Z" style="opacity:0.4"></path><path d="M83.11,241.16l.59,11.94L81,254.83l-1.9-1-.49-9.8a1.76,1.76,0,0,0-.85-1.33L63.33,235.3l-3-1.54c-.45-.23-.79,0-.76.49l.48,9.8-1.91-1-.59-11.94a.86.86,0,0,1,0-.16,1.74,1.74,0,0,1,.72-1.25l1.14-.74A1.79,1.79,0,0,1,61,228.9l21.26,10.93A1.72,1.72,0,0,1,83.11,241.16Z" style="fill:#B3DDFF"></path><path d="M80.44,242.89,81,254.83l-1.9-1-.49-9.8a1.76,1.76,0,0,0-.85-1.33L63.33,235.3l-3-1.54c-.45-.23-.79,0-.76.49l.48,9.8-1.91-1-.59-11.94a.86.86,0,0,1,0-.16c.05-.39.36-.54.76-.34l21.27,10.93A1.77,1.77,0,0,1,80.44,242.89Z" style="opacity:0.2"></path></g><path d="M70.42,233.74l9.06,4.66a7.93,7.93,0,0,0-1.2-4c-1-1-5-5-6.34-4.59C71.31,230,70.72,231.74,70.42,233.74Z" style="fill:#f28f8f"></path><path d="M70.42,239a4.9,4.9,0,0,0,.28.82,14.06,14.06,0,0,0,3.86,4.51,6.08,6.08,0,0,0,2.9-1.72Z" style="fill:#f28f8f"></path><path d="M84.37,122.25c-6.58,2.89-11.35,7.94-14.75,18.67s-7.56,23.47-9.22,34.64-3.11,34.5-3.52,41.73a64.28,64.28,0,0,0-.23,8.77,70.83,70.83,0,0,0,1.59,9.83,4.61,4.61,0,0,0,2.69,3.51,6,6,0,0,1,1.16.44c.67.41,1,1.23,1.53,1.79a3.65,3.65,0,0,0,2.48.93c.41,0,.82,0,1.22.05,1.49.22,2.58,1.54,4,2a4.39,4.39,0,0,0,3.3.08,10.12,10.12,0,0,0,1.56-1c.27-.2,1-.93,1.23-1.14-2,.18-3.47-1.48-4.23-3a14.88,14.88,0,0,1-1.42-5.82,3.31,3.31,0,0,1,.2-1.4.64.64,0,0,1,.51-.42c.26,0,.43.25.57.47a14.08,14.08,0,0,0,3.2,4.18,3.14,3.14,0,0,0,2,.83,1.44,1.44,0,0,0,1.45-1.33,2.29,2.29,0,0,0-.26-.83A38.69,38.69,0,0,1,77,228.66a25.07,25.07,0,0,0-2.17-6.1c-1.11-2-3.71-4.72-3.43-7,.46-3.91,7.69-34.42,7.69-34.42s8.72-26.7,10.81-33.76C92.52,138.61,90.69,127.35,84.37,122.25Z" style="fill:#ffa8a7"></path><path d="M86.71,117.91c-10.52,5.36-13.07,9.59-15.95,17.56-2.59,7.13-8.34,26.68-9.78,33.64-2.56,12.45-4,36.26-4,36.26s1.24,3.42,7.47,4.92,8.72-.41,8.72-.41l7-30.24S91,154.54,91.88,151C93.71,143.89,95.22,122.7,86.71,117.91Z" style="fill:#e6e6e6"></path></g><path d="M166.79,97.93c.26.67.39,1.38.69,2a7,7,0,0,0,1.15,1.73,5.81,5.81,0,0,0,3.74,1.89c3.07.27,6.48-2.29,5.78-5.62a.55.55,0,0,1,.54-.62c2-.2,3.11-2.22,3.09-4.1a4.07,4.07,0,0,0-3.34-4.3,6.21,6.21,0,0,0-1.29-.07,8.79,8.79,0,0,1-1.25.11c-.8-.07-.88-1.08-1.22-1.64a4.31,4.31,0,0,0-7.17-.49,6.12,6.12,0,0,0-1.06,3c0,.12-.31.47-.38.2a4.75,4.75,0,0,1,2.42-5.08,5.35,5.35,0,0,1,6.08.58,5.11,5.11,0,0,1,1,1.1,4.28,4.28,0,0,1,.38.7c.06.12.18.68.28.74a2.38,2.38,0,0,0,.58-.06c.25,0,.51,0,.76,0a7,7,0,0,1,1.71.2,4.88,4.88,0,0,1,3.61,4.89,5,5,0,0,1-3.59,5.08c.42,3.68-3.23,6.46-6.71,6.37a6.71,6.71,0,0,1-4.59-2c-1.06-1.06-2.24-2.86-1.95-4.42C166.08,97.77,166.65,97.56,166.79,97.93Z" style="fill:#455a64"></path><path d="M154.27,93a24.34,24.34,0,0,1,4.89-1l2.14-.34a13.28,13.28,0,0,1,2.27-.27c.35,0,.15.48-.06.56a14,14,0,0,1-2.4.57l-2.27.4-2.17.35a9.53,9.53,0,0,1-2.44.18C154,93.46,154.12,93.07,154.27,93Z" style="fill:#455a64"></path><path d="M155.56,97.58a3.82,3.82,0,0,1,.88-.18c.34-.05.67-.08,1-.11l1.75-.1c.59,0,1.17,0,1.76-.06a8.58,8.58,0,0,1,2.09.05c.33.07,0,.54-.17.59a11.25,11.25,0,0,1-1.74.15l-1.82.1-1.8.11-.84.05a4.45,4.45,0,0,1-1.21,0C155.19,98.06,155.39,97.65,155.56,97.58Z" style="fill:#455a64"></path></g></g></svg>