<svg xmlns="http://www.w3.org/2000/svg" viewBox="0 0 500 500"><g id="freepik--background-complete--inject-42"><rect y="382.4" width="500" height="0.25" style="fill:#ebebeb"></rect><rect x="416.78" y="398.49" width="33.12" height="0.25" style="fill:#ebebeb"></rect><rect x="322.53" y="401.21" width="8.69" height="0.25" style="fill:#ebebeb"></rect><rect x="396.59" y="389.21" width="19.19" height="0.25" style="fill:#ebebeb"></rect><rect x="52.46" y="390.89" width="43.19" height="0.25" style="fill:#ebebeb"></rect><rect x="104.56" y="390.89" width="6.33" height="0.25" style="fill:#ebebeb"></rect><rect x="131.47" y="395.11" width="93.68" height="0.25" style="fill:#ebebeb"></rect><path d="M237,337.8H43.91a5.71,5.71,0,0,1-5.7-5.71V60.66A5.71,5.71,0,0,1,43.91,55H237a5.71,5.71,0,0,1,5.71,5.71V332.09A5.71,5.71,0,0,1,237,337.8ZM43.91,55.2a5.46,5.46,0,0,0-5.45,5.46V332.09a5.46,5.46,0,0,0,5.45,5.46H237a5.47,5.47,0,0,0,5.46-5.46V60.66A5.47,5.47,0,0,0,237,55.2Z" style="fill:#ebebeb"></path><path d="M453.31,337.8H260.21a5.72,5.72,0,0,1-5.71-5.71V60.66A5.72,5.72,0,0,1,260.21,55h193.1A5.71,5.71,0,0,1,459,60.66V332.09A5.71,5.71,0,0,1,453.31,337.8ZM260.21,55.2a5.47,5.47,0,0,0-5.46,5.46V332.09a5.47,5.47,0,0,0,5.46,5.46h193.1a5.47,5.47,0,0,0,5.46-5.46V60.66a5.47,5.47,0,0,0-5.46-5.46Z" style="fill:#ebebeb"></path><path d="M406.7,171.11s1.44-9.48-5.48-15.56-6.31-9.7-4.34-10.17,3.81,5.61,6.85,7.28c0,0,.09-8.67-3-11.86S396,129.38,399,129.24s3.25,4.88,3.85,8.45,3.89,8.58,3.89,8.58.64-7.75,2.63-10.94-3.32-10.49-1.27-13.68,5.7,2.88,5.4,9.73-4.87,14.13-3.8,21.28c0,0,2-5,3.81-5.47s3.63-3.78,4.85-5,2.74,3,0,7-9.73,14.53-8.66,23.08Z" style="fill:#e6e6e6"></path><path d="M402.56,166.8,400.3,181a7.23,7.23,0,0,0,7.13,8.37h2.42A7.23,7.23,0,0,0,417,181l-2.27-14.21Z" style="fill:#e6e6e6"></path><rect x="276.7" y="184.13" width="160.12" height="8.23" style="fill:#e0e0e0"></rect><rect x="284.07" y="153.81" width="7.05" height="30.33" style="fill:#ebebeb"></rect><rect x="318.18" y="153.81" width="7.05" height="30.33" style="fill:#ebebeb"></rect><rect x="359.53" y="153.43" width="7.05" height="30.33" transform="translate(-23.36 64.11) rotate(-9.78)" style="fill:#ebebeb"></rect><rect x="292.81" y="157.8" width="7.05" height="26.33" style="fill:#ebebeb"></rect><rect x="309.03" y="157.8" width="7.05" height="26.33" style="fill:#ebebeb"></rect><rect x="349.95" y="157.8" width="7.05" height="26.33" style="fill:#ebebeb"></rect><rect x="330.39" y="157.35" width="7.05" height="26.33" transform="translate(-29.04 76.49) rotate(-12.53)" style="fill:#ebebeb"></rect><rect x="302.44" y="152.3" width="3.53" height="31.83" style="fill:#ebebeb"></rect><rect x="344.4" y="152.3" width="3.53" height="31.83" style="fill:#ebebeb"></rect><rect x="276.7" y="245.55" width="160.12" height="8.23" transform="translate(713.52 499.33) rotate(180)" style="fill:#e0e0e0"></rect><rect x="422.4" y="215.23" width="7.05" height="30.33" transform="translate(851.85 460.78) rotate(180)" style="fill:#ebebeb"></rect><rect x="388.29" y="215.23" width="7.05" height="30.33" transform="translate(783.63 460.78) rotate(180)" style="fill:#ebebeb"></rect><rect x="346.94" y="214.85" width="7.05" height="30.33" transform="translate(656.77 516.21) rotate(-170.22)" style="fill:#ebebeb"></rect><rect x="413.66" y="219.22" width="7.05" height="26.33" transform="translate(834.37 464.77) rotate(180)" style="fill:#ebebeb"></rect><rect x="397.44" y="219.22" width="7.05" height="26.33" transform="translate(801.94 464.77) rotate(180)" style="fill:#ebebeb"></rect><rect x="356.52" y="219.22" width="7.05" height="26.33" transform="translate(720.09 464.77) rotate(180)" style="fill:#ebebeb"></rect><rect x="376.08" y="218.77" width="7.05" height="26.33" transform="translate(699.88 540.69) rotate(-167.47)" style="fill:#ebebeb"></rect><rect x="407.56" y="213.72" width="3.53" height="31.83" transform="translate(818.64 459.27) rotate(180)" style="fill:#ebebeb"></rect><rect x="365.6" y="213.72" width="3.53" height="31.83" transform="translate(734.73 459.27) rotate(180)" style="fill:#ebebeb"></rect><rect x="292.07" y="221.55" width="34.37" height="23.73" transform="translate(618.5 466.83) rotate(180)" style="fill:#ebebeb"></rect><path d="M131.32,254.82l1.87,12.45,24.24-1.36.47-12.57a64.93,64.93,0,0,0,21.9-10.5l10.1,7.45,16.17-18.09L197.54,223a64.68,64.68,0,0,0,8-22.92L218,198.19,216.63,174l-12.57-.48a64.89,64.89,0,0,0-10.5-21.89l7.45-10.1-18.09-16.18-9.21,8.53a64.93,64.93,0,0,0-22.92-8l-1.88-12.45-24.23,1.35-.48,12.58a64.8,64.8,0,0,0-21.89,10.5l-10.1-7.46L76,148.46l8.53,9.21a65.13,65.13,0,0,0-8,22.93l-12.44,1.87,1.35,24.24,12.58.48a65,65,0,0,0,10.5,21.89l-7.46,10.1,18.09,16.18,9.21-8.54A64.73,64.73,0,0,0,131.32,254.82Zm-12.17-40a32.85,32.85,0,1,1,46.39-2.58A32.85,32.85,0,0,1,119.15,214.82Z" style="fill:#f0f0f0"></path><path d="M196.84,109.21l4.36-6.32-3-2.55a20.56,20.56,0,0,0,1.6-7.5l3.83-1.09-1.39-7.54-4,.35a20.41,20.41,0,0,0-4.17-6.45L196,74.64l-6.31-4.35-2.55,3a20.57,20.57,0,0,0-7.51-1.6l-1.08-3.83L171,69.29l.35,4a20.67,20.67,0,0,0-6.45,4.16l-3.46-1.93-4.36,6.31,3,2.55a20.55,20.55,0,0,0-1.59,7.51l-3.83,1.08,1.38,7.55,4-.35a20.32,20.32,0,0,0,4.16,6.45L162.28,110l6.32,4.35,2.55-3a20.52,20.52,0,0,0,7.5,1.6l1.09,3.83,7.54-1.38-.35-4a20.67,20.67,0,0,0,6.45-4.16Zm-23.59-8.32a10.39,10.39,0,1,1,14.45-2.65A10.38,10.38,0,0,1,173.25,100.89Z" style="fill:#f0f0f0"></path><path d="M116.27,293.1l3.9-4.36-2-2.22A15.67,15.67,0,0,0,120,281l3-.45-.33-5.83-3-.12a15.62,15.62,0,0,0-2.52-5.27L119,266.9l-4.36-3.9-2.21,2.06a15.56,15.56,0,0,0-5.52-1.93l-.45-3-5.84.32-.12,3A15.74,15.74,0,0,0,95.18,266l-2.43-1.8-3.89,4.36,2,2.22A15.69,15.69,0,0,0,89,276.32l-3,.45.32,5.83,3,.12A15.64,15.64,0,0,0,91.87,288l-1.8,2.43,4.36,3.9,2.22-2.06a15.49,15.49,0,0,0,5.52,1.93l.45,3,5.84-.33.11-3a15.64,15.64,0,0,0,5.27-2.53Zm-17-8.54a7.91,7.91,0,1,1,11.17-.63A7.9,7.9,0,0,1,99.24,284.56Z" style="fill:#f0f0f0"></path><path d="M88.43,125.48,93,120.41l-2.39-2.58a18.08,18.08,0,0,0,2.24-6.43l3.49-.52-.38-6.8L92.4,104a18.14,18.14,0,0,0-3-6.14L91.54,95l-5.07-4.53-2.58,2.39a18,18,0,0,0-6.42-2.24l-.53-3.49-6.79.38L70,91A18.1,18.1,0,0,0,63.88,94l-2.83-2.09-4.54,5.07,2.39,2.58a18.43,18.43,0,0,0-2.24,6.42l-3.49.53.38,6.79,3.53.14A18.26,18.26,0,0,0,60,119.53l-2.09,2.83L63,126.9l2.58-2.39A18.48,18.48,0,0,0,72,126.75l.52,3.49,6.8-.38.13-3.53a18.31,18.31,0,0,0,6.14-2.94ZM68.6,115.54a9.21,9.21,0,1,1,13-.73A9.22,9.22,0,0,1,68.6,115.54Z" style="fill:#f0f0f0"></path><path d="M150.36,80.26l2-2.2-1-1.12a8.14,8.14,0,0,0,1-2.79l1.51-.22-.16-3-1.53-.06a7.88,7.88,0,0,0-1.28-2.66l.91-1.22-2.2-2-1.12,1a7.91,7.91,0,0,0-2.78-1l-.23-1.51-2.95.17-.05,1.52a8,8,0,0,0-2.66,1.28l-1.23-.91-2,2.2,1,1.12a7.74,7.74,0,0,0-1,2.79l-1.51.22.16,2.95,1.53.06A7.86,7.86,0,0,0,138,77.68l-.9,1.22,2.2,2,1.12-1a7.91,7.91,0,0,0,2.78,1l.23,1.51,2.94-.17.06-1.52a8.08,8.08,0,0,0,2.66-1.28ZM141.76,76a4,4,0,1,1,5.64-.32A4,4,0,0,1,141.76,76Z" style="fill:#f0f0f0"></path><path d="M205.14,137.29a13.84,13.84,0,0,0,5,1.07l.73,2.57L216,140l-.23-2.66a13.68,13.68,0,0,0,4.32-2.79l2.33,1.3,2.92-4.24-2-1.71a13.84,13.84,0,0,0,1.07-5l2.57-.73-.93-5.06-2.66.23a13.75,13.75,0,0,0-2.79-4.32l1.3-2.33-4.24-2.92-1.71,2a13.84,13.84,0,0,0-5-1.07l-.73-2.57-5.06.93.23,2.66a13.57,13.57,0,0,0-4.32,2.79l-2.33-1.3-2.92,4.24,2,1.71a13.84,13.84,0,0,0-1.07,5l-2.57.73L195,130l2.66-.23a13.57,13.57,0,0,0,2.79,4.32l-1.3,2.33,4.24,2.92Zm1.41-7a7,7,0,1,1,9.69-1.78A7,7,0,0,1,206.55,130.27Z" style="fill:#f0f0f0"></path></g><g id="freepik--Shadow--inject-42"><ellipse id="freepik--path--inject-42" cx="250" cy="416.24" rx="193.89" ry="11.32" style="fill:#f5f5f5"></ellipse></g><g id="freepik--Character--inject-42"><path d="M220.67,245a3.88,3.88,0,0,1-2.32-1.38l-5.15-6.19a4,4,0,0,1-.55-4.29l2.84-6.17a46.07,46.07,0,0,1,11.83-15.63l1.71-1.44a6.68,6.68,0,0,1,9.42.69,2.09,2.09,0,0,1,.14.17l5.24,6.4a6.68,6.68,0,0,1-.24,8.65l-6.4,7.28S229,246.49,220.67,245Z" style="fill:#ebb376"></path><path d="M277.15,272.91c-3.12-5.9-8-9.31-14.67-9.56-4.71-.18-8.64,1.94-12.14,5-7,6.15-14.21,12.14-22.27,16.94a62.81,62.81,0,0,1-7.44,3.81c-.51.21-1,.51-1.45.33-1.82-.74-.66-7.51-.12-10.58.87-4.92,3.18-15.31,10.35-34.82l-18.12-9.62A135.43,135.43,0,0,0,194.9,268c-4.3,13.23-4.72,21.73-3.78,28.48,1.34,9.58,5.31,14.54,6.54,16,4.18,4.92,9.65,7.5,15.92,8.43,6,.9,11.87-.19,17.61-1.91,11.56-3.46,21.62-9.66,31-17a138.63,138.63,0,0,0,11-9.66,17.53,17.53,0,0,0,5.41-10.07,3.61,3.61,0,0,1,.19-.64v-3.17A24.21,24.21,0,0,0,277.15,272.91Z" style="fill:#407BFF"></path><path d="M252.54,272.51a160.73,160.73,0,0,1-18,45.36c1.7-.62,4-1.52,6.68-2.74a93.52,93.52,0,0,0,13.07-7.42,120.82,120.82,0,0,0,11.07-8.22Z" style="opacity:0.2"></path><path d="M223.28,215.21a33.92,33.92,0,0,0,2.27,8.39,34.76,34.76,0,0,0,9.28,12.79c.76-1.07,1.56-2.16,2.43-3.26,1.74-2.24,3.5-4.27,5.21-6.1l-12.39-17.92a48.2,48.2,0,0,0-4.52,3.77C224.73,213.67,224,214.45,223.28,215.21Z" style="opacity:0.2"></path><path d="M398.35,385c-13-32.41-21.14-54.89-30.43-114.88-2.29-14.75-16-24.4-30.07-23.15-4,.36-17.36-1.3-40.57,4.28-16.95,4.08-46.73,17.34-46.73,17.34S263,330.28,299.71,385Z" style="fill:#407BFF"></path><path d="M398.35,385c-13-32.41-21.14-54.89-30.43-114.88-2.29-14.75-16-24.4-30.07-23.15-4,.36-17.36-1.3-40.57,4.28-16.95,4.08-46.73,17.34-46.73,17.34S263,330.28,299.71,385Z" style="fill:#fff;opacity:0.7000000000000001"></path><path d="M333.84,332.74c3.74,9.05,9.62,20.18,15.55,30.62,4.56,8,9.15,15.64,12.82,21.6h38.36l-14.7-35.16-2.14-5.1L381,330.6l-12.31-63.26c-2.49-12.8-14.76-22.8-27-22l-16.6,1.06-.15.72c-1.17,5.68-8.07,44.07,8.78,85.25Z" style="fill:#407BFF"></path><path d="M285.74,368.92c4.26,9.29,7.14,15.3,7.14,15.3s0,.26-.12.74h14.79a136.28,136.28,0,0,0-1.19-16.26,219.87,219.87,0,0,0-6.58-31.62c-1-3.63-2.14-7.15-3.3-10.45-9.67-27.52-14.51-67.26-14.91-70.55,0-.15,0-.22,0-.22s-30.19,8.79-31,12.68c-2.15,10.37,10.31,43.14,22.26,71.18C277.5,350.74,282.12,361,285.74,368.92Z" style="fill:#407BFF"></path><path d="M281.81,251.73c4.42,4.81,6.16,8.48,6.67,11.14.75,3.9-1.13,5.65-1.13,5.65,2.34,9.56,15.24,7.63,15.24,7.63C317.08,259.43,315.75,248,315.75,248c-9.23-.22-15.53-6.09-19.59-12.11A48.73,48.73,0,0,1,290,222.83l-16.4,21.28A77.65,77.65,0,0,1,281.81,251.73Z" style="fill:#ebb376"></path><path d="M273.63,244.11a77.65,77.65,0,0,1,8.18,7.62c4.42,4.81,6.16,8.48,6.67,11.14,7.07-8.37,8.35-18.49,7.68-27A48.73,48.73,0,0,1,290,222.83Z" style="opacity:0.2"></path><path d="M278.7,166.93c0-2.29.38-8.87,5.18-14.14,6.21-6.82,16.85-8.13,24.06-5,9.14,3.93,7.09,12.5,19.23,31,9.55,14.52,13.94,14,17.13,24.18.88,2.8,6.16,19.74-3.92,30.83-5.51,6.06-13.05,7.47-16.46,7.88,1.66-3,3.43-7.4,2.45-12.14-1.23-5.94-6.07-8.91-9.65-12-16.34-14.06-9-32.67-25.28-44.78A34.45,34.45,0,0,0,278.7,166.93Z" style="fill:#263238"></path><path d="M233.56,225c-1.42-2-12.7-18.54-6.47-36.84,4.27-12.58,14.49-19.17,18.52-21.76s11.7-7.62,21.08-7.56c23.82.15,41.92,29.14,40.87,46.61-.57,9.62-2.95,21.52-11.5,28.13-3.43,2.65-4.76-7.65-4.76-7.65S258.08,241.47,233.56,225Z" style="fill:#263238"></path><path d="M289.67,188.33c6.64,22.13,9.9,31.33,3.39,46.95-9.79,23.5-37.55,28.09-50.45,8.71-11.61-17.45-20.5-50.71-3.16-68.1C256.53,158.74,283,166.21,289.67,188.33Z" style="fill:#ebb376"></path><path d="M264.39,189.57c17.34,9.07,2.37,35.5,24.32,24.3s-1.62-38.63-18.2-39.72S264.39,189.57,264.39,189.57Z" style="fill:#263238"></path><path d="M259.3,207.8c.69,1.81.34,3.7-.78,4.22s-2.58-.53-3.27-2.35-.35-3.7.77-4.22S258.61,206,259.3,207.8Z" style="fill:#263238"></path><path d="M238.36,217.86c.7,1.82.35,3.71-.77,4.22s-2.59-.53-3.28-2.34-.34-3.7.78-4.22S237.67,216.05,238.36,217.86Z" style="fill:#263238"></path><path d="M235.62,215.39,231,216S234.44,218.46,235.62,215.39Z" style="fill:#263238"></path><path d="M245.23,218.1s-.2,9.15-2.12,14.34c3.08,1.28,6.61-1.41,6.61-1.41Z" style="fill:#d58745"></path><path d="M264.89,231.66a17.83,17.83,0,0,1,3.12-.72.51.51,0,0,1,.59.49.62.62,0,0,1-.51.65,16.07,16.07,0,0,0-11.64,7.68.57.57,0,0,1-.75.28.56.56,0,0,1-.22-.76A16.91,16.91,0,0,1,264.89,231.66Z" style="fill:#263238"></path><path d="M301.68,206.77A15.85,15.85,0,0,1,297,218.71c-4.05,3.67-8.87-.65-10.08-6.84-1.09-5.56-.3-14.17,4.89-15.37S301.6,200.82,301.68,206.77Z" style="fill:#ebb376"></path><path d="M227.27,210.5a1,1,0,0,1,.67-.53,8.29,8.29,0,0,0,6-5.08,1,1,0,0,1,1.38-.67,1.23,1.23,0,0,1,.7,1.49,10.36,10.36,0,0,1-7.52,6.52,1.17,1.17,0,0,1-1.34-.89A1.2,1.2,0,0,1,227.27,210.5Z" style="fill:#263238"></path><path d="M258.17,197.25a1.11,1.11,0,0,1,.61.54,1.12,1.12,0,0,1-.6,1.47,11.84,11.84,0,0,1-10.52.09,1,1,0,0,1-.33-1.49,1.24,1.24,0,0,1,1.6-.4,9.44,9.44,0,0,0,8.33-.16A1.31,1.31,0,0,1,258.17,197.25Z" style="fill:#263238"></path><path d="M256.55,205.33,252,206S255.37,208.4,256.55,205.33Z" style="fill:#263238"></path><path d="M246.37,183.22c12.55,12.19,25.95,17.21,32.85,16.51a31.82,31.82,0,0,0,9.45-2.38c2.74-1.3,6.76-3.86,6.76-3.86a34.64,34.64,0,0,0-4.14-10.92,37.1,37.1,0,0,0-18.66-15.38c-3.1-1.18-12.73-4.3-22.47-1.21-13.9,4.4-23.91,20.14-24.29,39.11a27.87,27.87,0,0,1,2.65-1.88,28.59,28.59,0,0,1,8.63-3.6,23.85,23.85,0,0,1,1.62-6.33A24.92,24.92,0,0,1,246.37,183.22Z" style="fill:#263238"></path><path d="M275.1,200.82a2.1,2.1,0,0,1-2,1.79,4.26,4.26,0,0,1-3.72-1.81,2.07,2.07,0,0,1-.07-2.29l.92-1.49.09-.14q3.12-4.33,4.38-3.84C275.68,193.42,275.82,196,275.1,200.82Z" style="fill:#407BFF"></path><path d="M274.44,200.13a1.56,1.56,0,0,1-1.47,1.33,3.16,3.16,0,0,1-1.57-.33,3.12,3.12,0,0,1-1.17-1,1.53,1.53,0,0,1-.05-1.69l.67-1.1a.61.61,0,0,0,.07-.1q2.29-3.19,3.23-2.83C274.88,194.68,275,196.59,274.44,200.13Z" style="fill:#fff;opacity:0.7000000000000001"></path><path d="M273.49,225.91a50.32,50.32,0,0,1,.09-23.3c.48,2.43.95,4.86,1.43,7.29l21.31,5q2.22-6.27,4.43-12.55a13.92,13.92,0,0,1,.58,2c.07.32,1.55,7.54-3.07,13.09A13.59,13.59,0,0,1,296.6,219q0,.94-.09,1.92c-.13,2.12-.35,4.14-.64,6Z" style="opacity:0.2"></path><path d="M278.44,225.8a4.27,4.27,0,0,0,2.77.9l8.7-.24a4.3,4.3,0,0,0,3.87-2.6l3-6.71A49.7,49.7,0,0,0,301,196.41l0-2.42a7.22,7.22,0,0,0-7.27-7.16h-.24l-8.92.31a7.21,7.21,0,0,0-6.86,6.35l-1.36,10.39S271.23,220.11,278.44,225.8Z" style="fill:#ebb376"></path><path d="M355.63,249.57a15.83,15.83,0,0,1,3,2c6.7,5.6,6.4,15,6.38,15.58-.38,8.23-6.78,13.59-12.19,18.12a57.89,57.89,0,0,1-28.54,12.53Q339.95,273.67,355.63,249.57Z" style="opacity:0.2"></path><path d="M289.36,302a26.27,26.27,0,0,1-12-5.75c-5.52-4.76-7.3-10.62-8.81-15.57a48.49,48.49,0,0,1-1.64-20.09l6.77-2.27Z" style="opacity:0.2"></path><path d="M355.94,249.81c-5-4-10.88-3.53-13-3.35-8.66.7-15.23,6.48-21.86,12.37-3.25,2.89-6.71,5.56-9.9,8.53a25.58,25.58,0,0,1-10.26,5.49,1.8,1.8,0,0,1-.66,0,1.31,1.31,0,0,1-.47-.16,1.48,1.48,0,0,1-.74-.92c-.73-2.57-1.36-5.2-1.86-7.83-1.6-8.39-1.62-15.17-1.65-23,0-5.39.15-10.88.51-16.31l0-.48L274.17,222l-.09.44a237,237,0,0,0-4.43,40c-.13,6.58,0,14.33,3.65,23a29.76,29.76,0,0,0,5.2,9.05,28.16,28.16,0,0,0,21.35,9.3,31.39,31.39,0,0,0,4.28-.29c13.82-1.77,25.74-8.19,30.1-10.69,14.72-8.43,21.21-16.67,23.17-19.3,2.67-3.58,4.48-6.89,4.54-11C362,254.85,356.18,250,355.94,249.81Z" style="fill:#407BFF"></path></g><g id="freepik--speech-bubble--inject-42"><g id="freepik--bBaloon--inject-42"><path d="M408.23,107.27c0-5.17-2.69-9.83-7-13.19a10.07,10.07,0,0,0,.22-2.06c0-6.89-7-12.48-15.69-12.64-2.63-6.65-10.52-11.48-19.84-11.48-7.43,0-13.95,3.07-17.62,7.69a19.88,19.88,0,0,0-2.81-.2c-8.87,0-16.07,5.66-16.07,12.64a10.2,10.2,0,0,0,.62,3.48c-5.65,3-9.38,8-9.38,13.78,0,5.53,3.46,10.43,8.77,13.44a1.09,1.09,0,0,0,0,.18c0,6.77,6.78,12.3,15.29,12.62,4.7,4.59,11.89,7.52,20,7.52a30.45,30.45,0,0,0,15.14-3.89c.71.07,1.44.12,2.18.12,8.88,0,16.07-5.66,16.07-12.64v-.13C404.19,119.18,408.23,113.59,408.23,107.27Z" style="fill:#407BFF"></path><path d="M301.92,123.05c0,1.53-1.77,2.77-4,2.77s-4-1.24-4-2.77,1.77-2.77,4-2.77S301.92,121.52,301.92,123.05Z" style="fill:#407BFF"></path><path d="M315.47,112.93c0,2.33-2.71,4.22-6.06,4.22s-6.06-1.89-6.06-4.22,2.72-4.22,6.06-4.22S315.47,110.6,315.47,112.93Z" style="fill:#407BFF"></path><path d="M408.23,107.27c0-5.17-2.69-9.83-7-13.19a10.07,10.07,0,0,0,.22-2.06c0-6.89-7-12.48-15.69-12.64-2.63-6.65-10.52-11.48-19.84-11.48-7.43,0-13.95,3.07-17.62,7.69a19.88,19.88,0,0,0-2.81-.2c-8.87,0-16.07,5.66-16.07,12.64a10.2,10.2,0,0,0,.62,3.48c-5.65,3-9.38,8-9.38,13.78,0,5.53,3.46,10.43,8.77,13.44a1.09,1.09,0,0,0,0,.18c0,6.77,6.78,12.3,15.29,12.62,4.7,4.59,11.89,7.52,20,7.52a30.45,30.45,0,0,0,15.14-3.89c.71.07,1.44.12,2.18.12,8.88,0,16.07-5.66,16.07-12.64v-.13C404.19,119.18,408.23,113.59,408.23,107.27Z" style="fill:#fff;isolation:isolate;opacity:0.6000000000000001"></path><path d="M301.92,123.05c0,1.53-1.77,2.77-4,2.77s-4-1.24-4-2.77,1.77-2.77,4-2.77S301.92,121.52,301.92,123.05Z" style="fill:#fff;isolation:isolate;opacity:0.6000000000000001"></path><path d="M315.47,112.93c0,2.33-2.71,4.22-6.06,4.22s-6.06-1.89-6.06-4.22,2.72-4.22,6.06-4.22S315.47,110.6,315.47,112.93Z" style="fill:#fff;isolation:isolate;opacity:0.6000000000000001"></path></g><g id="freepik--Block--inject-42"><rect x="337.43" y="89.87" width="16.3" height="7.82" style="fill:#407BFF"></rect><rect x="337.43" y="89.87" width="16.3" height="7.82" style="fill:#fff;isolation:isolate;opacity:0.8"></rect><rect x="355.68" y="89.87" width="16.3" height="7.82" style="fill:#407BFF"></rect><rect x="355.68" y="89.87" width="16.3" height="7.82" style="fill:#fff;isolation:isolate;opacity:0.8"></rect><rect x="373.94" y="89.87" width="16.3" height="7.82" style="fill:#407BFF"></rect><rect x="373.94" y="89.87" width="16.3" height="7.82" style="fill:#fff;isolation:isolate;opacity:0.8"></rect><rect x="328.87" y="99.21" width="16.3" height="7.82" style="fill:#407BFF"></rect><rect x="328.87" y="99.21" width="16.3" height="7.82" style="fill:#fff;isolation:isolate;opacity:0.8"></rect><rect x="347.11" y="99.21" width="16.3" height="7.82" style="fill:#407BFF"></rect><rect x="347.11" y="99.21" width="16.3" height="7.82" style="fill:#fff;isolation:isolate;opacity:0.8"></rect><rect x="365.38" y="99.21" width="16.3" height="7.82" style="fill:#407BFF"></rect><rect x="365.38" y="99.21" width="16.3" height="7.82" style="fill:#fff;isolation:isolate;opacity:0.8"></rect><rect x="383.72" y="99.21" width="16.3" height="7.82" style="fill:#407BFF"></rect><rect x="383.72" y="99.21" width="16.3" height="7.82" style="fill:#fff;isolation:isolate;opacity:0.8"></rect><rect x="337.43" y="109.02" width="16.3" height="7.82" style="fill:#407BFF"></rect><rect x="337.43" y="109.02" width="16.3" height="7.82" style="fill:#fff;isolation:isolate;opacity:0.8"></rect><rect x="355.68" y="109.02" width="16.3" height="7.82" style="fill:#407BFF"></rect><rect x="355.68" y="109.02" width="16.3" height="7.82" style="fill:#fff;isolation:isolate;opacity:0.8"></rect><rect x="373.94" y="109.02" width="16.3" height="7.82" style="fill:#407BFF"></rect><rect x="373.94" y="109.02" width="16.3" height="7.82" style="fill:#fff;isolation:isolate;opacity:0.8"></rect><rect x="346.13" y="80.53" width="16.3" height="7.82" style="fill:#407BFF"></rect><rect x="346.13" y="80.53" width="16.3" height="7.82" style="fill:#fff;isolation:isolate;opacity:0.8"></rect><rect x="364.4" y="80.53" width="16.3" height="7.82" style="fill:#407BFF"></rect><rect x="364.4" y="80.53" width="16.3" height="7.82" style="fill:#fff;isolation:isolate;opacity:0.8"></rect><rect x="347.11" y="118.36" width="16.3" height="7.82" style="fill:#407BFF"></rect><rect x="347.11" y="118.36" width="16.3" height="7.82" style="fill:#fff;isolation:isolate;opacity:0.8"></rect><rect x="365.38" y="118.36" width="16.3" height="7.82" style="fill:#407BFF"></rect><rect x="365.38" y="118.36" width="16.3" height="7.82" style="fill:#fff;isolation:isolate;opacity:0.8"></rect></g><g id="freepik----inject-42"><path d="M369.44,96.2c-.08-3.17-2.8-5.28-7.07-5.21-4.1.06-7.05,1.68-8.91,4.48L348,92c3-4.34,7.9-7,14.83-7.12,8.14-.11,13.68,3.6,13.86,10.09.26,9.22-9.19,10.2-9,16.87l-7,.1C360.39,103.57,369.6,101.85,369.44,96.2ZM360,121.05a4.23,4.23,0,0,1,4.32-4.42,4.34,4.34,0,0,1,4.5,4.29,4.26,4.26,0,0,1-4.26,4.47A4.4,4.4,0,0,1,360,121.05Z" style="fill:#407BFF"></path></g></g><g id="freepik--Table--inject-42"><g id="freepik--table--inject-42"><rect x="70.65" y="392.63" width="360.17" height="23.28" style="fill:#263238"></rect><rect x="70.65" y="392.63" width="360.17" height="23.28" style="fill:#fff;opacity:0.30000000000000004"></rect><rect x="65.59" y="384.87" width="370.28" height="15.52" rx="3.71" style="fill:#263238"></rect><rect x="65.59" y="384.87" width="370.28" height="15.52" rx="3.71" style="fill:#fff;opacity:0.4"></rect></g></g><g id="freepik--Books--inject-42"><g id="freepik--Book--inject-42"><rect x="89.06" y="367.79" width="70.81" height="15.01" style="fill:#263238"></rect><rect x="89.06" y="367.79" width="70.81" height="15.01" style="fill:#fff;opacity:0.8"></rect><rect x="89.06" y="370.74" width="69.81" height="0.68" style="fill:#fff;opacity:0.5"></rect><rect x="89.06" y="374.61" width="69.81" height="0.68" style="fill:#fff;opacity:0.5"></rect><rect x="89.06" y="378.66" width="69.81" height="0.68" style="fill:#fff;opacity:0.5"></rect><path d="M159.27,365.72H87.42a.61.61,0,0,0-.62.61v1.89a.62.62,0,0,0,.62.62h68.69a1.23,1.23,0,0,1,1.23,1.23v10.66a1.23,1.23,0,0,1-1.23,1.23H87.34a.54.54,0,0,0-.54.54v1.83a.54.54,0,0,0,.54.54h72a2,2,0,0,0,2-2v-15h0A2.1,2.1,0,0,0,159.27,365.72Z" style="fill:#407BFF"></path><rect x="89.06" y="348.58" width="70.81" height="15.01" style="fill:#263238"></rect><rect x="89.06" y="348.58" width="70.81" height="15.01" style="fill:#fff;opacity:0.9"></rect><rect x="89.06" y="350.91" width="69.81" height="0.68" style="fill:#fff;opacity:0.7000000000000001"></rect><rect x="89.06" y="353.68" width="69.81" height="0.68" style="fill:#fff;opacity:0.7000000000000001"></rect><rect x="89.06" y="356.74" width="69.81" height="0.68" style="fill:#fff;opacity:0.7000000000000001"></rect><rect x="89.06" y="359.51" width="69.81" height="0.68" style="fill:#fff;opacity:0.7000000000000001"></rect><path d="M159.27,346.51H87.42a.62.62,0,0,0-.62.62V349a.61.61,0,0,0,.62.61h68.69a1.23,1.23,0,0,1,1.23,1.23v10.67a1.23,1.23,0,0,1-1.23,1.23H87.34a.54.54,0,0,0-.54.54v1.82a.54.54,0,0,0,.54.54h72a2,2,0,0,0,2-2v-15h0A2.11,2.11,0,0,0,159.27,346.51Z" style="fill:#407BFF"></path><path d="M159.27,346.51H87.42a.62.62,0,0,0-.62.62V349a.61.61,0,0,0,.62.61h68.69a1.23,1.23,0,0,1,1.23,1.23v10.67a1.23,1.23,0,0,1-1.23,1.23H87.34a.54.54,0,0,0-.54.54v1.82a.54.54,0,0,0,.54.54h72a2,2,0,0,0,2-2v-15h0A2.11,2.11,0,0,0,159.27,346.51Z" style="fill:#fff;opacity:0.30000000000000004"></path><rect x="89.06" y="335" width="70.81" height="9.44" style="fill:#263238"></rect><rect x="89.06" y="335" width="70.81" height="9.44" style="fill:#fff;opacity:0.8"></rect><rect x="89.06" y="337" width="69.81" height="0.68" style="fill:#fff;opacity:0.5"></rect><rect x="89.06" y="340.91" width="69.81" height="0.68" style="fill:#fff;opacity:0.5"></rect><path d="M86.8,332.43v2.38a.36.36,0,0,0,.37.37H157a.37.37,0,0,1,.37.37v7.07a1,1,0,0,1-1,1H87.17a.36.36,0,0,0-.37.36v2.18a.36.36,0,0,0,.37.36h72.42a1.78,1.78,0,0,0,1.78-1.78v-12.3a.37.37,0,0,0-.36-.37H87.17A.37.37,0,0,0,86.8,332.43Z" style="fill:#407BFF"></path></g></g><g id="freepik--paper-balls--inject-42"><g id="freepik--paper-trash--inject-42"><path d="M348.22,372.27q2.07-4.25,4.15-8.48a48.53,48.53,0,0,0-13.65-3.62l-.13,4.38,2,.85-.72,5.15,4.26,0Z" style="fill:#263238"></path><path d="M338.59,364.55l1.67,2.91c.09-.68.19-1.37.28-2.06Z" style="fill:#263238"></path><path d="M339.82,370.55l7.47,8.46.93-6.74-4.14-1.68Z" style="fill:#263238"></path><path d="M347.29,379l4.44-1.07-3.51-5.67Z" style="fill:#263238"></path><path d="M352.37,363.79l6.85,3.81-4.64,6.56-6.36-1.89Q350.29,368,352.37,363.79Z" style="fill:#263238"></path><path d="M347.29,379l3.32,3.67,3.18.94c-.69-1.9-1.37-3.79-2.06-5.68Z" style="fill:#263238"></path><path d="M353.79,383.62l1.58-2L353.66,377l-1.93,1C352.42,379.83,353.1,381.72,353.79,383.62Z" style="fill:#263238"></path><path d="M353.66,377l-5.44-4.71,3.51,5.67Z" style="fill:#263238"></path><path d="M354.58,374.16c.75,1.69,1.49,3.39,2.23,5.08L353.66,377l-5.44-4.71Z" style="fill:#263238"></path><path d="M356.81,379.24l7.56-2.9-2.72-6.72.39-3.3-2.82,1.28-4.64,6.56C355.33,375.85,356.07,377.55,356.81,379.24Z" style="fill:#263238"></path><path d="M345.54,361.45l3-2.3,4.59-2.15,4.52,5.64-5.31,1.15c-.93-.4-1.93-.79-3-1.17Q347.35,361.92,345.54,361.45Z" style="fill:#263238"></path><path d="M357.68,362.64l4.36,3.68-2.86,1.29-6.81-3.82Z" style="fill:#263238"></path><path d="M355.37,381.66l5.46,3.5c-.42-1.3-.83-2.61-1.24-3.91L353.66,377Z" style="fill:#263238"></path><path d="M360.83,385.16l3.15-6.54.39-2.28-7.56,2.9,2.78,2C360,382.55,360.41,383.86,360.83,385.16Z" style="fill:#263238"></path><path d="M339.82,370.55l-1.83.83,2.48,2.37,4.12,10.43,2.7-5.17Z" style="fill:#263238"></path><path d="M344.59,384.18l3.78,1.06,5.42-1.62-3.18-.94L347.29,379Z" style="fill:#263238"></path><path d="M338,371.38a12.06,12.06,0,0,0-1.37,2.79,12.56,12.56,0,0,0-.65,3.5l7.12,2.67c-.87-2.2-1.75-4.39-2.62-6.59Z" style="fill:#263238"></path><path d="M348.22,372.27q2.07-4.25,4.15-8.48a48.53,48.53,0,0,0-13.65-3.62l-.13,4.38,2,.85-.72,5.15,4.26,0Z" style="fill:#fff;opacity:0.9"></path><path d="M338.59,364.55l1.67,2.91c.09-.68.19-1.37.28-2.06Z" style="fill:#fff;opacity:0.8"></path><path d="M339.82,370.55l7.47,8.46.93-6.74-4.14-1.68Z" style="fill:#fff;opacity:0.8"></path><path d="M347.29,379l4.44-1.07-3.51-5.67Z" style="fill:#fff;opacity:0.9"></path><path d="M352.37,363.79l6.85,3.81-4.64,6.56-6.36-1.89Q350.29,368,352.37,363.79Z" style="fill:#fff;opacity:0.8"></path><path d="M347.29,379l3.32,3.67,3.18.94c-.69-1.9-1.37-3.79-2.06-5.68Z" style="fill:#fff;opacity:0.7000000000000001"></path><path d="M353.79,383.62l1.58-2L353.66,377l-1.93,1C352.42,379.83,353.1,381.72,353.79,383.62Z" style="fill:#fff;opacity:0.5"></path><path d="M353.66,377l-5.44-4.71,3.51,5.67Z" style="fill:#fff;opacity:0.5"></path><path d="M354.58,374.16c.75,1.69,1.49,3.39,2.23,5.08L353.66,377l-5.44-4.71Z" style="fill:#fff;opacity:0.9"></path><path d="M356.81,379.24l7.56-2.9-2.72-6.72.39-3.3-2.82,1.28-4.64,6.56C355.33,375.85,356.07,377.55,356.81,379.24Z" style="fill:#fff;opacity:0.8"></path><path d="M345.54,361.45l3-2.3,4.59-2.15,4.52,5.64-5.31,1.15c-.93-.4-1.93-.79-3-1.17Q347.35,361.92,345.54,361.45Z" style="fill:#fff"></path><path d="M357.68,362.64l4.36,3.68-2.86,1.29-6.81-3.82Z" style="fill:#fff;opacity:0.9"></path><path d="M355.37,381.66l5.46,3.5c-.42-1.3-.83-2.61-1.24-3.91L353.66,377Z" style="fill:#fff;opacity:0.9"></path><path d="M360.83,385.16l3.15-6.54.39-2.28-7.56,2.9,2.78,2C360,382.55,360.41,383.86,360.83,385.16Z" style="fill:#fff;opacity:0.8"></path><path d="M339.82,370.55l-1.83.83,2.48,2.37,4.12,10.43,2.7-5.17Z" style="fill:#fff;opacity:0.7000000000000001"></path><path d="M344.59,384.18l3.78,1.06,5.42-1.62-3.18-.94L347.29,379Z" style="fill:#fff;opacity:0.5"></path><path d="M338,371.38a12.06,12.06,0,0,0-1.37,2.79,12.56,12.56,0,0,0-.65,3.5l7.12,2.67c-.87-2.2-1.75-4.39-2.62-6.59Z" style="fill:#fff;opacity:0.9"></path><path d="M402.27,370.1l7.42,5.84a49.15,49.15,0,0,0,4.23-7.2,50.62,50.62,0,0,0,2.17-5.39l-4.25-1c-.42.58-.83,1.16-1.25,1.73l-4.87-1.78c-.32,1.38-.63,2.77-.94,4.15Z" style="fill:#263238"></path><path d="M411.84,362.31l-3.2,1,1.95.71C411,363.47,411.42,362.89,411.84,362.31Z" style="fill:#263238"></path><path d="M405.72,362.26l-9.85,5.52,6.4,2.32,2.51-3.69C405.09,365,405.4,363.64,405.72,362.26Z" style="fill:#263238"></path><path d="M395.87,367.78l.12,4.57,6.28-2.25Z" style="fill:#263238"></path><path d="M409.69,375.94l-5.17,5.9-5.43-5.91,3.18-5.83Z" style="fill:#263238"></path><path d="M395.87,367.78l-4.28,2.48c-.53,1-1.06,1.94-1.58,2.91l6-.82Z" style="fill:#263238"></path><path d="M390,373.17l1.58,2,4.93-.69c-.18-.7-.35-1.4-.53-2.09Z" style="fill:#263238"></path><path d="M396.52,374.44l5.75-4.34L396,372.35C396.17,373,396.34,373.74,396.52,374.44Z" style="fill:#263238"></path><path d="M399.09,375.93l-5.44,1.12,2.87-2.61,5.75-4.34Z" style="fill:#263238"></path><path d="M393.65,377.05c.42,2.66.83,5.33,1.25,8l7.14-1.25,3.14,1.08-.66-3-5.43-5.91Z" style="fill:#263238"></path><path d="M413.41,369.76,415,373.2l1.14,4.94-6.46,3.24c0-1.81,0-3.63,0-5.44q.88-1.23,1.77-2.67C412.2,372.05,412.85,370.87,413.41,369.76Z" style="fill:#263238"></path><path d="M409.7,381.38l-4.52,3.49-.66-3.07,5.17-5.86C409.69,377.75,409.69,379.57,409.7,381.38Z" style="fill:#263238"></path><path d="M391.59,375.13l-4.57,4.6,4.08-.4,5.42-4.89Z" style="fill:#263238"></path><path d="M387,379.73l5.73,4.46,2.15.85c-.42-2.66-.83-5.33-1.25-8l-2.55,2.28Z" style="fill:#263238"></path><path d="M405.72,362.26c-.15-.66-.29-1.32-.43-2l-2.84,1.92-11.07,1.84,4.49,3.73Z" style="fill:#263238"></path><path d="M391.38,364.05l-1.82,3.48.45,5.64c.52-1,1.05-1.94,1.58-2.91l4.28-2.48Z" style="fill:#263238"></path><path d="M405.29,360.29a12.43,12.43,0,0,0-5.73-3.29l-4.11,6.4,7-1.19Z" style="fill:#263238"></path><path d="M402.27,370.1l7.42,5.84a49.15,49.15,0,0,0,4.23-7.2,50.62,50.62,0,0,0,2.17-5.39l-4.25-1c-.42.58-.83,1.16-1.25,1.73l-4.87-1.78c-.32,1.38-.63,2.77-.94,4.15Z" style="fill:#fff;opacity:0.9"></path><path d="M411.84,362.31l-3.2,1,1.95.71C411,363.47,411.42,362.89,411.84,362.31Z" style="fill:#fff;opacity:0.9"></path><path d="M405.72,362.26l-9.85,5.52,6.4,2.32,2.51-3.69C405.09,365,405.4,363.64,405.72,362.26Z" style="fill:#fff;opacity:0.8"></path><path d="M395.87,367.78l.12,4.57,6.28-2.25Z" style="fill:#fff;opacity:0.8"></path><path d="M409.69,375.94l-5.17,5.9-5.43-5.91,3.18-5.83Z" style="fill:#fff;opacity:0.8"></path><path d="M395.87,367.78l-4.28,2.48c-.53,1-1.06,1.94-1.58,2.91l6-.82Z" style="fill:#fff;opacity:0.7000000000000001"></path><path d="M390,373.17l1.58,2,4.93-.69c-.18-.7-.35-1.4-.53-2.09Z" style="fill:#fff;opacity:0.5"></path><path d="M396.52,374.44l5.75-4.34L396,372.35C396.17,373,396.34,373.74,396.52,374.44Z" style="fill:#fff;opacity:0.5"></path><path d="M399.09,375.93l-5.44,1.12,2.87-2.61,5.75-4.34Z" style="fill:#fff;opacity:0.9"></path><path d="M393.65,377.05c.42,2.66.83,5.33,1.25,8l7.14-1.25,3.14,1.08-.66-3-5.43-5.91Z" style="fill:#fff;opacity:0.7000000000000001"></path><path d="M413.41,369.76,415,373.2l1.14,4.94-6.46,3.24c0-1.81,0-3.63,0-5.44q.88-1.23,1.77-2.67C412.2,372.05,412.85,370.87,413.41,369.76Z" style="fill:#fff;opacity:0.7000000000000001"></path><path d="M409.7,381.38l-4.52,3.49-.66-3.07c1.73-1.95,3.45-3.91,5.17-5.86C409.69,377.75,409.69,379.57,409.7,381.38Z" style="fill:#fff;opacity:0.5"></path><path d="M391.59,375.13l-4.57,4.6,4.08-.4,5.42-4.89Z" style="fill:#fff;opacity:0.9"></path><path d="M387,379.73l5.73,4.46,2.15.85c-.42-2.66-.83-5.33-1.25-8l-2.55,2.28Z" style="fill:#fff;opacity:0.7000000000000001"></path><path d="M405.72,362.26c-.15-.66-.29-1.32-.43-2l-2.84,1.92-11.07,1.84,4.49,3.73Z" style="fill:#fff;opacity:0.9"></path><path d="M391.38,364.05l-1.82,3.48.45,5.64c.52-1,1.05-1.94,1.58-2.91l4.28-2.48Z" style="fill:#fff;opacity:0.9"></path><path d="M405.29,360.29a12.43,12.43,0,0,0-5.73-3.29l-4.11,6.4,7-1.19Z" style="fill:#fff"></path></g></g><g id="freepik--Device--inject-42"><path d="M234,384.91l44.43,0a.57.57,0,0,0,.55-.69q-.68-3.12-1.37-6.22a.57.57,0,0,0-.55-.45l-47.5,0a.58.58,0,0,0-.47.91l4.45,6.21A.57.57,0,0,0,234,384.91Z" style="fill:#407BFF"></path><path d="M234,384.91l44.44,0a.55.55,0,0,0,.54-.68c-.46-2.09-.93-4.17-1.4-6.26a.58.58,0,0,0-.55-.44H229.5a.56.56,0,0,0-.45.89l4.46,6.24A.56.56,0,0,0,234,384.91Z" style="opacity:0.2"></path><path d="M214.24,308.91H130.51a3,3,0,0,0-1.28.29l-3.63,1.74q10.32,37,20.65,73.93l83.84.22,4.7-.18c-6.5-25-12.7-50-19.19-75A1.4,1.4,0,0,0,214.24,308.91Z" style="fill:#407BFF"></path><path d="M230.09,385.09l-83.84-.22q-10.33-37-20.65-73.93h85.49Z" style="opacity:0.2"></path><path d="M129,309.32l-3.38,1.62h85.49l3.4-1.63a.21.21,0,0,0-.1-.4h-83.6A4.17,4.17,0,0,0,129,309.32Z" style="fill:#fff;opacity:0.2"></path><path d="M182,345a8.6,8.6,0,1,1-9.36-7.76A8.59,8.59,0,0,1,182,345Z" style="fill:#407BFF"></path><path d="M215.59,309.92l19.2,75-4.7.18-19-74.15,3.3-1.58A.86.86,0,0,1,215.59,309.92Z" style="opacity:0.4"></path></g></svg>